<svg width="50" height="49" viewBox="0 0 50 49" fill="none" xmlns="http://www.w3.org/2000/svg">
<g clip-path="url(#clip0_55_3084)">
<mask id="mask0_55_3084" style="mask-type:luminance" maskUnits="userSpaceOnUse" x="-2" y="-3" width="54" height="55">
<path d="M42.5174 4.0835H7.80908C6.99686 4.0835 6.2179 4.40615 5.64357 4.98048C5.06924 5.55481 4.74658 6.33377 4.74658 7.146V41.8543C4.74658 42.6666 5.06924 43.4455 5.64357 44.0198C6.2179 44.5942 6.99686 44.9168 7.80908 44.9168H42.5174C43.3296 44.9168 44.1086 44.5942 44.6829 44.0198C45.2573 43.4455 45.5799 42.6666 45.5799 41.8543V7.146C45.5799 6.33377 45.2573 5.55481 44.6829 4.98048C44.1086 4.40615 43.3296 4.0835 42.5174 4.0835Z" fill="white" stroke="white" stroke-width="12.5" stroke-linejoin="round"/>
<path d="M12.9133 19.4512C16.3073 15.3678 20.3906 13.3262 25.1633 13.3262C29.9354 13.3262 34.0187 15.3678 37.4133 19.4512" stroke="black" stroke-width="12.5" stroke-linecap="round"/>
<path d="M25.1633 31.646C25.9756 31.646 26.7545 31.3233 27.3288 30.749C27.9032 30.1747 28.2258 29.3957 28.2258 28.5835C28.2258 27.7713 27.9032 26.9923 27.3288 26.418C26.7545 25.8437 25.9756 25.521 25.1633 25.521C24.3511 25.521 23.5721 25.8437 22.9978 26.418C22.4235 26.9923 22.1008 27.7713 22.1008 28.5835C22.1008 29.3957 22.4235 30.1747 22.9978 30.749C23.5721 31.3233 24.3511 31.646 25.1633 31.646Z" fill="black"/>
<path d="M20.0591 21.4377L25.1714 28.5836" stroke="black" stroke-width="12.5" stroke-linecap="round"/>
</mask>
<g mask="url(#mask0_55_3084)">
<path d="M0.66333 0.000244141H49.6633V49.0002H0.66333V0.000244141Z" fill="#CA66C3"/>
<path d="M0.66333 0.000244141H49.6633V49.0002H0.66333V0.000244141Z" fill="#CA66C3"/>
</g>
<rect x="6" y="4" width="40" height="41" fill="#CA66C3"/>
<path d="M21.3396 33.3685C21.3396 33.6605 21.2111 33.9405 20.9823 34.147C20.7536 34.3535 20.4434 34.4694 20.1199 34.4694H17.6804C17.3569 34.4694 17.0467 34.3535 16.8179 34.147C16.5892 33.9405 16.4607 33.6605 16.4607 33.3685C16.4607 33.0765 16.5892 32.7964 16.8179 32.5899C17.0467 32.3835 17.3569 32.2675 17.6804 32.2675H20.1199C20.4434 32.2675 20.7536 32.3835 20.9823 32.5899C21.2111 32.7964 21.3396 33.0765 21.3396 33.3685ZM32.3172 32.2675H29.8777C29.5542 32.2675 29.244 32.3835 29.0153 32.5899C28.7865 32.7964 28.658 33.0765 28.658 33.3685C28.658 33.6605 28.7865 33.9405 29.0153 34.147C29.244 34.3535 29.5542 34.4694 29.8777 34.4694H32.3172C32.6407 34.4694 32.9509 34.3535 33.1797 34.147C33.4084 33.9405 33.5369 33.6605 33.5369 33.3685C33.5369 33.0765 33.4084 32.7964 33.1797 32.5899C32.9509 32.3835 32.6407 32.2675 32.3172 32.2675ZM20.7297 25.6615C21.0916 25.6615 21.4453 25.5647 21.7462 25.3832C22.0471 25.2018 22.2816 24.9438 22.4201 24.6421C22.5585 24.3403 22.5948 24.0082 22.5242 23.6879C22.4536 23.3675 22.2793 23.0733 22.0235 22.8423C21.7676 22.6113 21.4416 22.454 21.0867 22.3903C20.7318 22.3266 20.3639 22.3593 20.0296 22.4843C19.6953 22.6093 19.4095 22.821 19.2085 23.0925C19.0074 23.3641 18.9001 23.6834 18.9001 24.0101C18.9001 24.4481 19.0929 24.8681 19.436 25.1778C19.7791 25.4875 20.2445 25.6615 20.7297 25.6615ZM29.2679 25.6615C29.6297 25.6615 29.9835 25.5647 30.2843 25.3832C30.5852 25.2018 30.8197 24.9438 30.9582 24.6421C31.0967 24.3403 31.1329 24.0082 31.0623 23.6879C30.9917 23.3675 30.8175 23.0733 30.5616 22.8423C30.3057 22.6113 29.9797 22.454 29.6248 22.3903C29.2699 22.3266 28.902 22.3593 28.5677 22.4843C28.2334 22.6093 27.9477 22.821 27.7466 23.0925C27.5456 23.3641 27.4383 23.6834 27.4383 24.0101C27.4383 24.4481 27.631 24.8681 27.9741 25.1778C28.3173 25.4875 28.7826 25.6615 29.2679 25.6615ZM42.7444 23.7513C42.5157 24.0042 42.2275 24.2079 41.9008 24.3479C41.5741 24.4879 41.217 24.5605 40.8553 24.5606H35.9764V28.9645C37.0004 29.6577 37.7568 30.6242 38.1385 31.7271C38.5201 32.8299 38.5077 34.0132 38.1029 35.1093C37.6981 36.2054 36.9216 37.1587 35.8832 37.8343C34.8448 38.5099 33.5972 38.8734 32.3172 38.8734H17.6804C16.4004 38.8734 15.1528 38.5099 14.1144 37.8343C13.076 37.1587 12.2995 36.2054 11.8947 35.1093C11.4899 34.0132 11.4775 32.8299 11.8591 31.7271C12.2408 30.6242 12.9972 29.6577 14.0212 28.9645V24.5606H9.14226C8.78348 24.56 8.42924 24.4881 8.1048 24.3498C7.78036 24.2116 7.4937 24.0104 7.26524 23.7607C7.03679 23.511 6.87217 23.2188 6.78312 22.9051C6.69407 22.5914 6.68278 22.2638 6.75005 21.9457C7.14115 20.2007 8.18801 18.6312 9.71355 17.5027C11.2391 16.3742 13.1496 15.756 15.122 15.7527H15.372C14.5581 15.0365 13.9113 14.1804 13.4698 13.2349C13.0283 12.2895 12.801 11.2737 12.8015 10.2477C12.8015 9.95572 12.93 9.67568 13.1587 9.4692C13.3875 9.26273 13.6977 9.14673 14.0212 9.14673C14.3447 9.14673 14.6549 9.26273 14.8837 9.4692C15.1124 9.67568 15.2409 9.95572 15.2409 10.2477C15.2409 11.7077 15.8835 13.1079 17.0272 14.1403C18.1709 15.1727 19.7221 15.7527 21.3396 15.7527H28.658C29.4589 15.7527 30.2519 15.6103 30.9919 15.3336C31.7318 15.057 32.4041 14.6515 32.9704 14.1403C33.5367 13.6291 33.986 13.0223 34.2924 12.3544C34.5989 11.6865 34.7567 10.9706 34.7567 10.2477C34.7567 9.95572 34.8852 9.67568 35.1139 9.4692C35.3427 9.26273 35.6529 9.14673 35.9764 9.14673C36.2999 9.14673 36.6101 9.26273 36.8389 9.4692C37.0676 9.67568 37.1961 9.95572 37.1961 10.2477C37.1966 11.2737 36.9693 12.2895 36.5278 13.2349C36.0863 14.1804 35.4395 15.0365 34.6256 15.7527H34.8756C36.848 15.756 38.7585 16.3742 40.2841 17.5027C41.8096 18.6312 42.8565 20.2007 43.2476 21.9457C43.3168 22.2615 43.3076 22.5873 43.2206 22.8995C43.1336 23.2117 42.971 23.5027 42.7444 23.7513ZM16.4607 27.9736C16.8622 27.9006 17.2708 27.8637 17.6804 27.8635H32.3172C32.7268 27.8637 33.1354 27.9006 33.5369 27.9736V21.2576C33.5369 20.3816 33.1514 19.5415 32.4652 18.922C31.779 18.3026 30.8482 17.9546 29.8777 17.9546H20.1199C19.1494 17.9546 18.2186 18.3026 17.5324 18.922C16.8462 19.5415 16.4607 20.3816 16.4607 21.2576V27.9736ZM14.0212 22.3586V21.2576C14.019 20.0662 14.4472 18.9066 15.2409 17.9546H15.119C13.7137 17.9567 12.3522 18.3958 11.2636 19.1979C10.175 20 9.42583 21.1162 9.14226 22.3586H14.0212ZM35.9764 33.3685C35.9764 32.4925 35.5909 31.6523 34.9047 31.0329C34.2184 30.4135 33.2877 30.0655 32.3172 30.0655H17.6804C16.7099 30.0655 15.7792 30.4135 15.0929 31.0329C14.4067 31.6523 14.0212 32.4925 14.0212 33.3685C14.0212 34.2445 14.4067 35.0846 15.0929 35.704C15.7792 36.3234 16.7099 36.6714 17.6804 36.6714H32.3172C33.2877 36.6714 34.2184 36.3234 34.9047 35.704C35.5909 35.0846 35.9764 34.2445 35.9764 33.3685ZM40.8553 22.3586C40.572 21.1161 39.823 19.9998 38.7343 19.1976C37.6457 18.3954 36.284 17.9564 34.8786 17.9546H34.7567C35.5504 18.9066 35.9786 20.0662 35.9764 21.2576V22.3586H40.8553Z" fill="white" stroke="white"/>
</g>
<defs>
<clipPath id="clip0_55_3084">
<rect width="49" height="49" fill="white" transform="translate(0.5)"/>
</clipPath>
</defs>
</svg>
