<svg width="70" height="57" viewBox="0 0 70 57" fill="none" xmlns="http://www.w3.org/2000/svg">
<path d="M27.9965 46.4444C27.9965 47.0043 27.7506 47.5413 27.3129 47.9372C26.8753 48.3331 26.2817 48.5556 25.6628 48.5556H20.9954C20.3765 48.5556 19.7829 48.3331 19.3453 47.9372C18.9076 47.5413 18.6618 47.0043 18.6618 46.4444C18.6618 45.8845 18.9076 45.3476 19.3453 44.9517C19.7829 44.5557 20.3765 44.3333 20.9954 44.3333H25.6628C26.2817 44.3333 26.8753 44.5557 27.3129 44.9517C27.7506 45.3476 27.9965 45.8845 27.9965 46.4444ZM48.9995 44.3333H44.3322C43.7132 44.3333 43.1197 44.5557 42.682 44.9517C42.2444 45.3476 41.9985 45.8845 41.9985 46.4444C41.9985 47.0043 42.2444 47.5413 42.682 47.9372C43.1197 48.3331 43.7132 48.5556 44.3322 48.5556H48.9995C49.6185 48.5556 50.212 48.3331 50.6497 47.9372C51.0873 47.5413 51.3332 47.0043 51.3332 46.4444C51.3332 45.8845 51.0873 45.3476 50.6497 44.9517C50.212 44.5557 49.6185 44.3333 48.9995 44.3333ZM26.8296 31.6667C27.5219 31.6667 28.1987 31.4809 28.7744 31.133C29.35 30.785 29.7987 30.2905 30.0637 29.7118C30.3286 29.1332 30.3979 28.4965 30.2629 27.8822C30.1278 27.2679 29.7944 26.7037 29.3049 26.2608C28.8153 25.818 28.1916 25.5164 27.5125 25.3942C26.8335 25.272 26.1297 25.3347 25.49 25.5744C24.8504 25.8141 24.3037 26.2199 23.919 26.7407C23.5344 27.2614 23.3291 27.8737 23.3291 28.5C23.3291 29.3399 23.6979 30.1453 24.3544 30.7392C25.0108 31.333 25.9012 31.6667 26.8296 31.6667ZM43.1653 31.6667C43.8577 31.6667 44.5345 31.4809 45.1101 31.133C45.6858 30.785 46.1344 30.2905 46.3994 29.7118C46.6643 29.1332 46.7337 28.4965 46.5986 27.8822C46.4635 27.2679 46.1301 26.7037 45.6406 26.2608C45.151 25.818 44.5273 25.5164 43.8483 25.3942C43.1692 25.272 42.4654 25.3347 41.8258 25.5744C41.1861 25.8141 40.6394 26.2199 40.2548 26.7407C39.8701 27.2614 39.6648 27.8737 39.6648 28.5C39.6648 29.3399 40.0336 30.1453 40.6901 30.7392C41.3466 31.333 42.2369 31.6667 43.1653 31.6667ZM68.9495 28.0039C68.5119 28.4887 67.9606 28.8794 67.3355 29.1478C66.7104 29.4162 66.0272 29.5554 65.3353 29.5556H56.0006V38C57.9597 39.3293 59.4069 41.1825 60.1372 43.2971C60.8674 45.4118 60.8436 47.6807 60.0691 49.7824C59.2947 51.8841 57.8089 53.7122 55.8222 55.0076C53.8354 56.3029 51.4485 57 48.9995 57H20.9954C18.5464 57 16.1595 56.3029 14.1728 55.0076C12.1861 53.7122 10.7003 51.8841 9.92583 49.7824C9.15139 47.6807 9.12759 45.4118 9.8578 43.2971C10.588 41.1825 12.0352 39.3293 13.9944 38V29.5556H4.6597C3.97326 29.5545 3.29551 29.4166 2.67477 29.1515C2.05403 28.8863 1.50557 28.5006 1.06848 28.0218C0.631387 27.543 0.31643 26.9829 0.146052 26.3813C-0.0243262 25.7798 -0.0459303 25.1516 0.0827787 24.5417C0.831054 21.1957 2.83398 18.1862 5.75273 16.0223C8.67148 13.8585 12.3269 12.6731 16.1005 12.6667H16.5789C15.0216 11.2934 13.7841 9.65191 12.9394 7.839C12.0947 6.02608 11.6599 4.07849 11.6607 2.11111C11.6607 1.55121 11.9066 1.01424 12.3442 0.61833C12.7819 0.22242 13.3755 0 13.9944 0C14.6133 0 15.2069 0.22242 15.6446 0.61833C16.0822 1.01424 16.3281 1.55121 16.3281 2.11111C16.3281 4.91062 17.5574 7.59547 19.7457 9.57502C21.9339 11.5546 24.9018 12.6667 27.9965 12.6667H41.9985C43.5308 12.6667 45.0481 12.3936 46.4638 11.8632C47.8795 11.3327 49.1658 10.5552 50.2493 9.57502C51.3328 8.59484 52.1923 7.43121 52.7787 6.15055C53.3651 4.86989 53.6669 3.49729 53.6669 2.11111C53.6669 1.55121 53.9127 1.01424 54.3504 0.61833C54.788 0.22242 55.3816 0 56.0006 0C56.6195 0 57.2131 0.22242 57.6507 0.61833C58.0884 1.01424 58.3342 1.55121 58.3342 2.11111C58.335 4.07849 57.9003 6.02608 57.0556 7.839C56.2109 9.65191 54.9733 11.2934 53.416 12.6667H53.8944C57.6681 12.6731 61.3235 13.8585 64.2422 16.0223C67.161 18.1862 69.1639 21.1957 69.9122 24.5417C70.0447 25.1473 70.0271 25.7719 69.8606 26.3706C69.6941 26.9692 69.383 27.5271 68.9495 28.0039ZM18.6618 36.1C19.43 35.96 20.2117 35.8892 20.9954 35.8889H48.9995C49.7832 35.8892 50.5649 35.96 51.3332 36.1V23.2222C51.3332 21.5425 50.5956 19.9316 49.2827 18.7439C47.9697 17.5561 46.189 16.8889 44.3322 16.8889H25.6628C23.806 16.8889 22.0252 17.5561 20.7123 18.7439C19.3994 19.9316 18.6618 21.5425 18.6618 23.2222V36.1ZM13.9944 25.3333V23.2222C13.9902 20.9377 14.8095 18.7142 16.3281 16.8889H16.0947C13.4061 16.8928 10.8011 17.7347 8.71834 19.2728C6.63557 20.8109 5.20225 22.9512 4.6597 25.3333H13.9944ZM56.0006 46.4444C56.0006 44.7647 55.2629 43.1538 53.95 41.9661C52.6371 40.7784 50.8563 40.1111 48.9995 40.1111H20.9954C19.1386 40.1111 17.3579 40.7784 16.045 41.9661C14.732 43.1538 13.9944 44.7647 13.9944 46.4444C13.9944 48.1241 14.732 49.7351 16.045 50.9228C17.3579 52.1105 19.1386 52.7778 20.9954 52.7778H48.9995C50.8563 52.7778 52.6371 52.1105 53.95 50.9228C55.2629 49.7351 56.0006 48.1241 56.0006 46.4444ZM65.3353 25.3333C64.7932 22.9509 63.36 20.8104 61.2772 19.2722C59.1943 17.7341 56.589 16.8924 53.9002 16.8889H53.6669C55.1855 18.7142 56.0048 20.9377 56.0006 23.2222V25.3333H65.3353Z" fill="white"/>
</svg>
