<svg width="378" height="378" viewBox="0 0 378 378" fill="none" xmlns="http://www.w3.org/2000/svg">
<path d="M252.729 344.15H235.246C233.238 344.15 231.82 342.26 232.411 340.37L254.973 261.463H278.598L255.564 342.024C255.209 343.324 254.028 344.15 252.729 344.15Z" fill="#A898B5"/>
<path d="M252.729 344.15H235.246C233.238 344.15 231.82 342.26 232.411 340.37L254.973 261.463H278.598L255.564 342.024C255.209 343.324 254.028 344.15 252.729 344.15Z" fill="url(#paint0_radial_84_3217)"/>
<path d="M252.729 344.15H235.246C233.238 344.15 231.82 342.26 232.411 340.37L254.973 261.463H278.598L255.564 342.024C255.209 343.324 254.028 344.15 252.729 344.15Z" fill="url(#paint1_radial_84_3217)"/>
<path d="M252.729 344.15H235.246C233.238 344.15 231.82 342.26 232.411 340.37L254.973 261.463H278.598L255.564 342.024C255.209 343.324 254.028 344.15 252.729 344.15Z" fill="url(#paint2_linear_84_3217)"/>
<path d="M252.729 344.15H235.246C233.238 344.15 231.82 342.26 232.411 340.37L254.973 261.463H278.598L255.564 342.024C255.209 343.324 254.028 344.15 252.729 344.15Z" fill="url(#paint3_linear_84_3217)"/>
<path d="M184.57 226.025H160.945L184.334 307.65C184.57 308.359 184.57 309.067 184.334 309.658L175.357 340.252C174.766 342.142 176.183 344.032 178.192 344.032H195.674C196.973 344.032 198.155 343.205 198.509 341.906L206.778 313.674C207.723 310.367 207.723 306.823 206.778 303.397L184.57 226.025Z" fill="url(#paint4_linear_84_3217)"/>
<path d="M184.57 226.025H160.945L184.334 307.65C184.57 308.359 184.57 309.067 184.334 309.658L175.357 340.252C174.766 342.142 176.183 344.032 178.192 344.032H195.674C196.973 344.032 198.155 343.205 198.509 341.906L206.778 313.674C207.723 310.367 207.723 306.823 206.778 303.397L184.57 226.025Z" fill="url(#paint5_radial_84_3217)"/>
<path d="M184.57 226.025H160.945L184.334 307.65C184.57 308.359 184.57 309.067 184.334 309.658L175.357 340.252C174.766 342.142 176.183 344.032 178.192 344.032H195.674C196.973 344.032 198.155 343.205 198.509 341.906L206.778 313.674C207.723 310.367 207.723 306.823 206.778 303.397L184.57 226.025Z" fill="url(#paint6_radial_84_3217)"/>
<path d="M184.57 226.025H160.945L184.334 307.65C184.57 308.359 184.57 309.067 184.334 309.658L175.357 340.252C174.766 342.142 176.183 344.032 178.192 344.032H195.674C196.973 344.032 198.155 343.205 198.509 341.906L206.778 313.674C207.723 310.367 207.723 306.823 206.778 303.397L184.57 226.025Z" fill="url(#paint7_linear_84_3217)"/>
<path d="M184.57 226.025H160.945L184.334 307.65C184.57 308.359 184.57 309.067 184.334 309.658L175.357 340.252C174.766 342.142 176.183 344.032 178.192 344.032H195.674C196.973 344.032 198.155 343.205 198.509 341.906L206.778 313.674C207.723 310.367 207.723 306.823 206.778 303.397L184.57 226.025Z" fill="url(#paint8_radial_84_3217)"/>
<path d="M184.57 226.025H160.945L184.334 307.65C184.57 308.359 184.57 309.067 184.334 309.658L175.357 340.252C174.766 342.142 176.183 344.032 178.192 344.032H195.674C196.973 344.032 198.155 343.205 198.509 341.906L206.778 313.674C207.723 310.367 207.723 306.823 206.778 303.397L184.57 226.025Z" fill="url(#paint9_radial_84_3217)"/>
<path d="M184.57 226.025H160.945L184.334 307.65C184.57 308.359 184.57 309.067 184.334 309.658L175.357 340.252C174.766 342.142 176.183 344.032 178.192 344.032H195.674C196.973 344.032 198.155 343.205 198.509 341.906L206.778 313.674C207.723 310.367 207.723 306.823 206.778 303.397L184.57 226.025Z" fill="url(#paint10_linear_84_3217)"/>
<path d="M184.57 226.025H160.945L184.334 307.65C184.57 308.359 184.57 309.067 184.334 309.658L175.357 340.252C174.766 342.142 176.183 344.032 178.192 344.032H195.674C196.973 344.032 198.155 343.205 198.509 341.906L206.778 313.674C207.723 310.367 207.723 306.823 206.778 303.397L184.57 226.025Z" fill="url(#paint11_radial_84_3217)"/>
<path d="M184.57 226.025H160.945L184.334 307.65C184.57 308.359 184.57 309.067 184.334 309.658L175.357 340.252C174.766 342.142 176.183 344.032 178.192 344.032H195.674C196.973 344.032 198.155 343.205 198.509 341.906L206.778 313.674C207.723 310.367 207.723 306.823 206.778 303.397L184.57 226.025Z" fill="url(#paint12_radial_84_3217)"/>
<path d="M301.986 285.088H242.215C222.96 285.088 207.486 269.495 207.486 250.359V214.213H301.986V285.088Z" fill="url(#paint13_linear_84_3217)"/>
<path d="M301.986 285.088H242.215C222.96 285.088 207.486 269.495 207.486 250.359V214.213H301.986V285.088Z" fill="url(#paint14_linear_84_3217)"/>
<path d="M294.545 107.9H193.902C173.348 107.9 154.33 97.2691 143.463 79.7866L140.864 75.416L122.2 107.9H66.4453L81.4472 190.588L89.4797 236.657C91.7241 249.178 101.41 258.746 113.577 260.99V341.197C113.577 342.851 114.877 344.15 116.53 344.15H134.249C135.903 344.15 137.202 342.851 137.202 341.197V309.02C137.202 308.832 137.308 308.659 137.477 308.574L147.479 303.515C155.63 299.381 160.827 291.112 160.827 282.017V261.463H236.309C243.515 261.463 250.012 258.982 255.327 254.966C255.327 272.685 267.376 288.159 284.622 292.412L302.126 296.759C302.461 296.842 302.695 297.142 302.695 297.487V341.197C302.695 342.851 303.995 344.15 305.648 344.15H323.367C325.021 344.15 326.32 342.851 326.32 341.197V296.9V237.838V229.451C330.809 226.498 334.707 222.954 338.133 218.938V273.394H349.945V163.419C349.945 132.707 325.139 107.9 294.545 107.9Z" fill="url(#paint15_linear_84_3217)"/>
<path d="M294.545 107.9H193.902C173.348 107.9 154.33 97.2691 143.463 79.7866L140.864 75.416L122.2 107.9H66.4453L81.4472 190.588L89.4797 236.657C91.7241 249.178 101.41 258.746 113.577 260.99V341.197C113.577 342.851 114.877 344.15 116.53 344.15H134.249C135.903 344.15 137.202 342.851 137.202 341.197V309.02C137.202 308.832 137.308 308.659 137.477 308.574L147.479 303.515C155.63 299.381 160.827 291.112 160.827 282.017V261.463H236.309C243.515 261.463 250.012 258.982 255.327 254.966C255.327 272.685 267.376 288.159 284.622 292.412L302.126 296.759C302.461 296.842 302.695 297.142 302.695 297.487V341.197C302.695 342.851 303.995 344.15 305.648 344.15H323.367C325.021 344.15 326.32 342.851 326.32 341.197V296.9V237.838V229.451C330.809 226.498 334.707 222.954 338.133 218.938V273.394H349.945V163.419C349.945 132.707 325.139 107.9 294.545 107.9Z" fill="url(#paint16_radial_84_3217)"/>
<path d="M294.545 107.9H193.902C173.348 107.9 154.33 97.2691 143.463 79.7866L140.864 75.416L122.2 107.9H66.4453L81.4472 190.588L89.4797 236.657C91.7241 249.178 101.41 258.746 113.577 260.99V341.197C113.577 342.851 114.877 344.15 116.53 344.15H134.249C135.903 344.15 137.202 342.851 137.202 341.197V309.02C137.202 308.832 137.308 308.659 137.477 308.574L147.479 303.515C155.63 299.381 160.827 291.112 160.827 282.017V261.463H236.309C243.515 261.463 250.012 258.982 255.327 254.966C255.327 272.685 267.376 288.159 284.622 292.412L302.126 296.759C302.461 296.842 302.695 297.142 302.695 297.487V341.197C302.695 342.851 303.995 344.15 305.648 344.15H323.367C325.021 344.15 326.32 342.851 326.32 341.197V296.9V237.838V229.451C330.809 226.498 334.707 222.954 338.133 218.938V273.394H349.945V163.419C349.945 132.707 325.139 107.9 294.545 107.9Z" fill="url(#paint17_radial_84_3217)"/>
<path d="M294.545 107.9H193.902C173.348 107.9 154.33 97.2691 143.463 79.7866L140.864 75.416L122.2 107.9H66.4453L81.4472 190.588L89.4797 236.657C91.7241 249.178 101.41 258.746 113.577 260.99V341.197C113.577 342.851 114.877 344.15 116.53 344.15H134.249C135.903 344.15 137.202 342.851 137.202 341.197V309.02C137.202 308.832 137.308 308.659 137.477 308.574L147.479 303.515C155.63 299.381 160.827 291.112 160.827 282.017V261.463H236.309C243.515 261.463 250.012 258.982 255.327 254.966C255.327 272.685 267.376 288.159 284.622 292.412L302.126 296.759C302.461 296.842 302.695 297.142 302.695 297.487V341.197C302.695 342.851 303.995 344.15 305.648 344.15H323.367C325.021 344.15 326.32 342.851 326.32 341.197V296.9V237.838V229.451C330.809 226.498 334.707 222.954 338.133 218.938V273.394H349.945V163.419C349.945 132.707 325.139 107.9 294.545 107.9Z" fill="url(#paint18_linear_84_3217)"/>
<path d="M294.545 107.9H193.902C173.348 107.9 154.33 97.2691 143.463 79.7866L140.864 75.416L122.2 107.9H66.4453L81.4472 190.588L89.4797 236.657C91.7241 249.178 101.41 258.746 113.577 260.99V341.197C113.577 342.851 114.877 344.15 116.53 344.15H134.249C135.903 344.15 137.202 342.851 137.202 341.197V309.02C137.202 308.832 137.308 308.659 137.477 308.574L147.479 303.515C155.63 299.381 160.827 291.112 160.827 282.017V261.463H236.309C243.515 261.463 250.012 258.982 255.327 254.966C255.327 272.685 267.376 288.159 284.622 292.412L302.126 296.759C302.461 296.842 302.695 297.142 302.695 297.487V341.197C302.695 342.851 303.995 344.15 305.648 344.15H323.367C325.021 344.15 326.32 342.851 326.32 341.197V296.9V237.838V229.451C330.809 226.498 334.707 222.954 338.133 218.938V273.394H349.945V163.419C349.945 132.707 325.139 107.9 294.545 107.9Z" fill="url(#paint19_radial_84_3217)"/>
<path d="M294.545 107.9H193.902C173.348 107.9 154.33 97.2691 143.463 79.7866L140.864 75.416L122.2 107.9H66.4453L81.4472 190.588L89.4797 236.657C91.7241 249.178 101.41 258.746 113.577 260.99V341.197C113.577 342.851 114.877 344.15 116.53 344.15H134.249C135.903 344.15 137.202 342.851 137.202 341.197V309.02C137.202 308.832 137.308 308.659 137.477 308.574L147.479 303.515C155.63 299.381 160.827 291.112 160.827 282.017V261.463H236.309C243.515 261.463 250.012 258.982 255.327 254.966C255.327 272.685 267.376 288.159 284.622 292.412L302.126 296.759C302.461 296.842 302.695 297.142 302.695 297.487V341.197C302.695 342.851 303.995 344.15 305.648 344.15H323.367C325.021 344.15 326.32 342.851 326.32 341.197V296.9V237.838V229.451C330.809 226.498 334.707 222.954 338.133 218.938V273.394H349.945V163.419C349.945 132.707 325.139 107.9 294.545 107.9Z" fill="url(#paint20_radial_84_3217)"/>
<path d="M294.545 107.9H193.902C173.348 107.9 154.33 97.2691 143.463 79.7866L140.864 75.416L122.2 107.9H66.4453L81.4472 190.588L89.4797 236.657C91.7241 249.178 101.41 258.746 113.577 260.99V341.197C113.577 342.851 114.877 344.15 116.53 344.15H134.249C135.903 344.15 137.202 342.851 137.202 341.197V309.02C137.202 308.832 137.308 308.659 137.477 308.574L147.479 303.515C155.63 299.381 160.827 291.112 160.827 282.017V261.463H236.309C243.515 261.463 250.012 258.982 255.327 254.966C255.327 272.685 267.376 288.159 284.622 292.412L302.126 296.759C302.461 296.842 302.695 297.142 302.695 297.487V341.197C302.695 342.851 303.995 344.15 305.648 344.15H323.367C325.021 344.15 326.32 342.851 326.32 341.197V296.9V237.838V229.451C330.809 226.498 334.707 222.954 338.133 218.938V273.394H349.945V163.419C349.945 132.707 325.139 107.9 294.545 107.9Z" fill="url(#paint21_radial_84_3217)"/>
<path d="M294.545 107.9H193.902C173.348 107.9 154.33 97.2691 143.463 79.7866L140.864 75.416L122.2 107.9H66.4453L81.4472 190.588L89.4797 236.657C91.7241 249.178 101.41 258.746 113.577 260.99V341.197C113.577 342.851 114.877 344.15 116.53 344.15H134.249C135.903 344.15 137.202 342.851 137.202 341.197V309.02C137.202 308.832 137.308 308.659 137.477 308.574L147.479 303.515C155.63 299.381 160.827 291.112 160.827 282.017V261.463H236.309C243.515 261.463 250.012 258.982 255.327 254.966C255.327 272.685 267.376 288.159 284.622 292.412L302.126 296.759C302.461 296.842 302.695 297.142 302.695 297.487V341.197C302.695 342.851 303.995 344.15 305.648 344.15H323.367C325.021 344.15 326.32 342.851 326.32 341.197V296.9V237.838V229.451C330.809 226.498 334.707 222.954 338.133 218.938V273.394H349.945V163.419C349.945 132.707 325.139 107.9 294.545 107.9Z" fill="url(#paint22_radial_84_3217)"/>
<path d="M294.545 107.9H193.902C173.348 107.9 154.33 97.2691 143.463 79.7866L140.864 75.416L122.2 107.9H66.4453L81.4472 190.588L89.4797 236.657C91.7241 249.178 101.41 258.746 113.577 260.99V341.197C113.577 342.851 114.877 344.15 116.53 344.15H134.249C135.903 344.15 137.202 342.851 137.202 341.197V309.02C137.202 308.832 137.308 308.659 137.477 308.574L147.479 303.515C155.63 299.381 160.827 291.112 160.827 282.017V261.463H236.309C243.515 261.463 250.012 258.982 255.327 254.966C255.327 272.685 267.376 288.159 284.622 292.412L302.126 296.759C302.461 296.842 302.695 297.142 302.695 297.487V341.197C302.695 342.851 303.995 344.15 305.648 344.15H323.367C325.021 344.15 326.32 342.851 326.32 341.197V296.9V237.838V229.451C330.809 226.498 334.707 222.954 338.133 218.938V273.394H349.945V163.419C349.945 132.707 325.139 107.9 294.545 107.9Z" fill="url(#paint23_radial_84_3217)"/>
<path d="M294.545 107.9H193.902C173.348 107.9 154.33 97.2691 143.463 79.7866L140.864 75.416L122.2 107.9H66.4453L81.4472 190.588L89.4797 236.657C91.7241 249.178 101.41 258.746 113.577 260.99V341.197C113.577 342.851 114.877 344.15 116.53 344.15H134.249C135.903 344.15 137.202 342.851 137.202 341.197V309.02C137.202 308.832 137.308 308.659 137.477 308.574L147.479 303.515C155.63 299.381 160.827 291.112 160.827 282.017V261.463H236.309C243.515 261.463 250.012 258.982 255.327 254.966C255.327 272.685 267.376 288.159 284.622 292.412L302.126 296.759C302.461 296.842 302.695 297.142 302.695 297.487V341.197C302.695 342.851 303.995 344.15 305.648 344.15H323.367C325.021 344.15 326.32 342.851 326.32 341.197V296.9V237.838V229.451C330.809 226.498 334.707 222.954 338.133 218.938V273.394H349.945V163.419C349.945 132.707 325.139 107.9 294.545 107.9Z" fill="url(#paint24_radial_84_3217)" fill-opacity="0.8"/>
<path d="M294.545 107.9H193.902C173.348 107.9 154.33 97.2691 143.463 79.7866L140.864 75.416L122.2 107.9H66.4453L81.4472 190.588L89.4797 236.657C91.7241 249.178 101.41 258.746 113.577 260.99V341.197C113.577 342.851 114.877 344.15 116.53 344.15H134.249C135.903 344.15 137.202 342.851 137.202 341.197V309.02C137.202 308.832 137.308 308.659 137.477 308.574L147.479 303.515C155.63 299.381 160.827 291.112 160.827 282.017V261.463H236.309C243.515 261.463 250.012 258.982 255.327 254.966C255.327 272.685 267.376 288.159 284.622 292.412L302.126 296.759C302.461 296.842 302.695 297.142 302.695 297.487V341.197C302.695 342.851 303.995 344.15 305.648 344.15H323.367C325.021 344.15 326.32 342.851 326.32 341.197V296.9V237.838V229.451C330.809 226.498 334.707 222.954 338.133 218.938V273.394H349.945V163.419C349.945 132.707 325.139 107.9 294.545 107.9Z" fill="url(#paint25_radial_84_3217)" fill-opacity="0.5"/>
<path d="M294.545 107.9H193.902C173.348 107.9 154.33 97.2691 143.463 79.7866L140.864 75.416L122.2 107.9H66.4453L81.4472 190.588L89.4797 236.657C91.7241 249.178 101.41 258.746 113.577 260.99V341.197C113.577 342.851 114.877 344.15 116.53 344.15H134.249C135.903 344.15 137.202 342.851 137.202 341.197V309.02C137.202 308.832 137.308 308.659 137.477 308.574L147.479 303.515C155.63 299.381 160.827 291.112 160.827 282.017V261.463H236.309C243.515 261.463 250.012 258.982 255.327 254.966C255.327 272.685 267.376 288.159 284.622 292.412L302.126 296.759C302.461 296.842 302.695 297.142 302.695 297.487V341.197C302.695 342.851 303.995 344.15 305.648 344.15H323.367C325.021 344.15 326.32 342.851 326.32 341.197V296.9V237.838V229.451C330.809 226.498 334.707 222.954 338.133 218.938V273.394H349.945V163.419C349.945 132.707 325.139 107.9 294.545 107.9Z" fill="url(#paint26_radial_84_3217)" fill-opacity="0.8"/>
<path d="M294.545 107.9H193.902C173.348 107.9 154.33 97.2691 143.463 79.7866L140.864 75.416L122.2 107.9H66.4453L81.4472 190.588L89.4797 236.657C91.7241 249.178 101.41 258.746 113.577 260.99V341.197C113.577 342.851 114.877 344.15 116.53 344.15H134.249C135.903 344.15 137.202 342.851 137.202 341.197V309.02C137.202 308.832 137.308 308.659 137.477 308.574L147.479 303.515C155.63 299.381 160.827 291.112 160.827 282.017V261.463H236.309C243.515 261.463 250.012 258.982 255.327 254.966C255.327 272.685 267.376 288.159 284.622 292.412L302.126 296.759C302.461 296.842 302.695 297.142 302.695 297.487V341.197C302.695 342.851 303.995 344.15 305.648 344.15H323.367C325.021 344.15 326.32 342.851 326.32 341.197V296.9V237.838V229.451C330.809 226.498 334.707 222.954 338.133 218.938V273.394H349.945V163.419C349.945 132.707 325.139 107.9 294.545 107.9Z" fill="url(#paint27_linear_84_3217)"/>
<path d="M160.114 260.936L139.073 224.714L94.8215 249.184C99.2769 255.285 105.938 259.581 113.577 260.991V341.197C113.577 342.851 114.876 344.151 116.53 344.151H134.249C135.902 344.151 137.202 342.851 137.202 341.197V312.345C137.202 310.117 138.455 308.079 140.442 307.074L147.479 303.516C155.629 299.381 160.827 291.112 160.827 282.017V261.463L160.114 260.936Z" fill="url(#paint28_linear_84_3217)"/>
<path d="M326.274 117.889V229.421C330.375 226.635 334.037 223.402 337.285 219.912C337.571 219.591 337.853 219.266 338.133 218.938V218.984C342.534 214.087 346.144 208.729 349.034 203.417C349.645 202.295 349.945 201.033 349.945 199.755V163.419C349.945 144.554 340.586 127.917 326.274 117.889Z" fill="url(#paint29_linear_84_3217)"/>
<path d="M326.274 117.889V229.421C330.375 226.635 334.037 223.402 337.285 219.912C337.571 219.591 337.853 219.266 338.133 218.938V218.984C342.534 214.087 346.144 208.729 349.034 203.417C349.645 202.295 349.945 201.033 349.945 199.755V163.419C349.945 144.554 340.586 127.917 326.274 117.889Z" fill="url(#paint30_radial_84_3217)"/>
<path d="M326.274 117.889V229.421C330.375 226.635 334.037 223.402 337.285 219.912C337.571 219.591 337.853 219.266 338.133 218.938V218.984C342.534 214.087 346.144 208.729 349.034 203.417C349.645 202.295 349.945 201.033 349.945 199.755V163.419C349.945 144.554 340.586 127.917 326.274 117.889Z" fill="url(#paint31_radial_84_3217)" fill-opacity="0.5"/>
<path d="M255.445 257.998V162.976L100.406 157.808L160.212 261.167L161.192 261.463H236.309C243.515 261.463 250.012 258.982 255.327 254.966C255.327 255.985 255.367 256.996 255.445 257.998Z" fill="url(#paint32_radial_84_3217)"/>
<path d="M255.445 257.998V162.976L100.406 157.808L160.212 261.167L161.192 261.463H236.309C243.515 261.463 250.012 258.982 255.327 254.966C255.327 255.985 255.367 256.996 255.445 257.998Z" fill="url(#paint33_radial_84_3217)"/>
<path d="M255.445 257.998V162.976L100.406 157.808L160.212 261.167L161.192 261.463H236.309C243.515 261.463 250.012 258.982 255.327 254.966C255.327 255.985 255.367 256.996 255.445 257.998Z" fill="url(#paint34_radial_84_3217)"/>
<path d="M255.445 257.998V162.976L100.406 157.808L160.212 261.167L161.192 261.463H236.309C243.515 261.463 250.012 258.982 255.327 254.966C255.327 255.985 255.367 256.996 255.445 257.998Z" fill="url(#paint35_radial_84_3217)"/>
<path d="M255.445 257.998V162.976L100.406 157.808L160.212 261.167L161.192 261.463H236.309C243.515 261.463 250.012 258.982 255.327 254.966C255.327 255.985 255.367 256.996 255.445 257.998Z" fill="url(#paint36_radial_84_3217)" fill-opacity="0.6"/>
<path d="M255.445 257.998V162.976L100.406 157.808L160.212 261.167L161.192 261.463H236.309C243.515 261.463 250.012 258.982 255.327 254.966C255.327 255.985 255.367 256.996 255.445 257.998Z" fill="url(#paint37_radial_84_3217)" fill-opacity="0.6"/>
<path d="M113.557 260.987V143.102H72.8318L81.4471 190.588L89.4796 236.657C91.7228 249.171 101.4 258.735 113.557 260.987Z" fill="url(#paint38_linear_84_3217)"/>
<path d="M349.945 189L344.028 210.779L338.11 218.947V218.965L338.133 218.938V273.394H349.945V189Z" fill="url(#paint39_linear_84_3217)"/>
<path d="M349.945 189L344.028 210.779L338.11 218.947V218.965L338.133 218.938V273.394H349.945V189Z" fill="url(#paint40_linear_84_3217)"/>
<path d="M349.945 189L344.028 210.779L338.11 218.947V218.965L338.133 218.938V273.394H349.945V189Z" fill="url(#paint41_linear_84_3217)" fill-opacity="0.25"/>
<path d="M349.945 308.713V261.463C336.952 261.463 326.32 272.094 326.32 285.088C326.32 298.2 336.952 308.713 349.945 308.713Z" fill="#77727D"/>
<path d="M349.945 308.713V261.463C336.952 261.463 326.32 272.094 326.32 285.088C326.32 298.2 336.952 308.713 349.945 308.713Z" fill="url(#paint42_radial_84_3217)"/>
<path d="M349.945 308.713V261.463C336.952 261.463 326.32 272.094 326.32 285.088C326.32 298.2 336.952 308.713 349.945 308.713Z" fill="url(#paint43_linear_84_3217)"/>
<path d="M349.945 308.713V261.463C336.952 261.463 326.32 272.094 326.32 285.088C326.32 298.2 336.952 308.713 349.945 308.713Z" fill="url(#paint44_radial_84_3217)" fill-opacity="0.7"/>
<path d="M349.945 308.713V261.463C336.952 261.463 326.32 272.094 326.32 285.088C326.32 298.2 336.952 308.713 349.945 308.713Z" fill="url(#paint45_radial_84_3217)" fill-opacity="0.6"/>
<path d="M349.945 308.713V261.463C336.952 261.463 326.32 272.094 326.32 285.088C326.32 298.2 336.952 308.713 349.945 308.713Z" fill="url(#paint46_radial_84_3217)"/>
<path d="M349.945 308.713V261.463C336.952 261.463 326.32 272.094 326.32 285.088C326.32 298.2 336.952 308.713 349.945 308.713Z" fill="url(#paint47_radial_84_3217)"/>
<path d="M102.71 42.5774L108.852 54.7443H126.571L116.885 35.4899C115.585 32.773 112.75 31.1193 109.797 31.1193C103.891 31.1193 100.111 37.2618 102.71 42.5774Z" fill="url(#paint48_radial_84_3217)"/>
<path d="M267.258 170.507V147.118C267.258 138.495 270.329 130.226 275.881 123.729L289.347 108.019H193.784C181.853 108.019 170.395 104.475 160.827 97.978V143.574C160.827 157.986 168.742 171.334 181.499 178.185L220.008 198.739C224.615 201.219 229.812 202.519 235.128 202.519C252.965 202.401 267.258 188.107 267.258 170.507Z" fill="url(#paint49_radial_84_3217)"/>
<path d="M267.258 170.507V147.118C267.258 138.495 270.329 130.226 275.881 123.729L289.347 108.019H193.784C181.853 108.019 170.395 104.475 160.827 97.978V143.574C160.827 157.986 168.742 171.334 181.499 178.185L220.008 198.739C224.615 201.219 229.812 202.519 235.128 202.519C252.965 202.401 267.258 188.107 267.258 170.507Z" fill="url(#paint50_radial_84_3217)" fill-opacity="0.5"/>
<path d="M297.734 134.479L292.655 139.558C284.032 148.181 279.07 159.994 279.07 172.279V184.682C279.07 194.486 286.985 202.401 296.789 202.401C306.593 202.401 314.508 194.486 314.508 184.682V141.448C314.508 132.707 303.877 128.336 297.734 134.479Z" fill="url(#paint51_linear_84_3217)"/>
<path d="M199.218 215.749L162.127 187.871C159.173 185.627 154.921 187.753 154.921 191.533V218.347C154.921 224.608 160 229.687 166.261 229.687H194.611C202.053 229.687 205.242 220.237 199.218 215.749Z" fill="url(#paint52_linear_84_3217)"/>
<path d="M199.218 215.749L162.127 187.871C159.173 185.627 154.921 187.753 154.921 191.533V218.347C154.921 224.608 160 229.687 166.261 229.687H194.611C202.053 229.687 205.242 220.237 199.218 215.749Z" fill="url(#paint53_radial_84_3217)" fill-opacity="0.8"/>
<path d="M95.1595 249.637C96.9076 249.393 98.6757 248.872 100.314 248.062C108.343 244.094 113.577 232.995 113.577 224.135V219.174C113.577 216.221 114.758 213.386 116.767 211.26L123.854 203.818C131.178 196.258 130.826 183.975 125.415 176.449C120.543 169.671 111.362 166.963 102.621 166.963H77.1947L77.1633 166.976L81.4471 190.588L89.4796 236.657C90.35 241.513 92.3398 245.925 95.1595 249.637Z" fill="url(#paint54_radial_84_3217)"/>
<path d="M262.533 234.767C268.991 234.767 274.227 229.531 274.227 223.072C274.227 216.614 268.991 211.378 262.533 211.378C256.074 211.378 250.838 216.614 250.838 223.072C250.838 229.531 256.074 234.767 262.533 234.767Z" fill="url(#paint55_linear_84_3217)"/>
<path d="M140.864 48.4838H113.813C104.954 48.4838 96.3309 51.0826 89.0072 56.0438L27.5822 97.0332C22.3847 100.459 19.1953 106.247 19.1953 112.626C19.1953 129.518 32.8978 143.102 49.6716 143.102H102.237C123.5 143.102 140.746 125.856 140.746 104.593V75.4163H145.589C160.473 75.4163 172.64 63.2495 172.64 48.3657H140.864V48.4838Z" fill="url(#paint56_linear_84_3217)"/>
<path d="M140.864 48.4838H113.813C104.954 48.4838 96.3309 51.0826 89.0072 56.0438L27.5822 97.0332C22.3847 100.459 19.1953 106.247 19.1953 112.626C19.1953 129.518 32.8978 143.102 49.6716 143.102H102.237C123.5 143.102 140.746 125.856 140.746 104.593V75.4163H145.589C160.473 75.4163 172.64 63.2495 172.64 48.3657H140.864V48.4838Z" fill="url(#paint57_linear_84_3217)"/>
<path d="M102.237 143.102H62.8462V106.24C62.8462 93.9102 70.5217 85.9085 74.3595 83.4488L120.901 53.6813C126.453 50.2557 132.713 48.3657 139.21 48.3657H140.746H172.639C172.639 63.2495 160.473 75.4163 145.589 75.4163H140.746V104.593C140.746 125.856 123.499 143.102 102.237 143.102Z" fill="#777679"/>
<path d="M102.237 143.102H62.8462V106.24C62.8462 93.9102 70.5217 85.9085 74.3595 83.4488L120.901 53.6813C126.453 50.2557 132.713 48.3657 139.21 48.3657H140.746H172.639C172.639 63.2495 160.473 75.4163 145.589 75.4163H140.746V104.593C140.746 125.856 123.499 143.102 102.237 143.102Z" fill="url(#paint58_linear_84_3217)"/>
<path d="M102.237 143.102H62.8462V106.24C62.8462 93.9102 70.5217 85.9085 74.3595 83.4488L120.901 53.6813C126.453 50.2557 132.713 48.3657 139.21 48.3657H140.746H172.639C172.639 63.2495 160.473 75.4163 145.589 75.4163H140.746V104.593C140.746 125.856 123.499 143.102 102.237 143.102Z" fill="url(#paint59_linear_84_3217)"/>
<path d="M102.237 143.102H62.8462V106.24C62.8462 93.9102 70.5217 85.9085 74.3595 83.4488L120.901 53.6813C126.453 50.2557 132.713 48.3657 139.21 48.3657H140.746H172.639C172.639 63.2495 160.473 75.4163 145.589 75.4163H140.746V104.593C140.746 125.856 123.499 143.102 102.237 143.102Z" fill="url(#paint60_radial_84_3217)"/>
<path d="M102.237 143.102H62.8462V106.24C62.8462 93.9102 70.5217 85.9085 74.3595 83.4488L120.901 53.6813C126.453 50.2557 132.713 48.3657 139.21 48.3657H140.746H172.639C172.639 63.2495 160.473 75.4163 145.589 75.4163H140.746V104.593C140.746 125.856 123.499 143.102 102.237 143.102Z" fill="url(#paint61_radial_84_3217)" fill-opacity="0.8"/>
<path d="M102.237 143.102H62.8462V106.24C62.8462 93.9102 70.5217 85.9085 74.3595 83.4488L120.901 53.6813C126.453 50.2557 132.713 48.3657 139.21 48.3657H140.746H172.639C172.639 63.2495 160.473 75.4163 145.589 75.4163H140.746V104.593C140.746 125.856 123.499 143.102 102.237 143.102Z" fill="url(#paint62_radial_84_3217)" fill-opacity="0.8"/>
<path d="M102.237 143.102H62.8462V106.24C62.8462 93.9102 70.5217 85.9085 74.3595 83.4488L120.901 53.6813C126.453 50.2557 132.713 48.3657 139.21 48.3657H140.746H172.639C172.639 63.2495 160.473 75.4163 145.589 75.4163H140.746V104.593C140.746 125.856 123.499 143.102 102.237 143.102Z" fill="url(#paint63_radial_84_3217)"/>
<path d="M102.237 143.102H62.8462V106.24C62.8462 93.9102 70.5217 85.9085 74.3595 83.4488L120.901 53.6813C126.453 50.2557 132.713 48.3657 139.21 48.3657H140.746H172.639C172.639 63.2495 160.473 75.4163 145.589 75.4163H140.746V104.593C140.746 125.856 123.499 143.102 102.237 143.102Z" fill="url(#paint64_radial_84_3217)"/>
<path d="M102.237 143.102H62.8462V106.24C62.8462 93.9102 70.5217 85.9085 74.3595 83.4488L120.901 53.6813C126.453 50.2557 132.713 48.3657 139.21 48.3657H140.746H172.639C172.639 63.2495 160.473 75.4163 145.589 75.4163H140.746V104.593C140.746 125.856 123.499 143.102 102.237 143.102Z" fill="url(#paint65_radial_84_3217)"/>
<path d="M102.237 143.102H62.8462V106.24C62.8462 93.9102 70.5217 85.9085 74.3595 83.4488L120.901 53.6813C126.453 50.2557 132.713 48.3657 139.21 48.3657H140.746H172.639C172.639 63.2495 160.473 75.4163 145.589 75.4163H140.746V104.593C140.746 125.856 123.499 143.102 102.237 143.102Z" fill="url(#paint66_radial_84_3217)"/>
<path d="M102.237 143.102H62.8462V106.24C62.8462 93.9102 70.5217 85.9085 74.3595 83.4488L120.901 53.6813C126.453 50.2557 132.713 48.3657 139.21 48.3657H140.746H172.639C172.639 63.2495 160.473 75.4163 145.589 75.4163H140.746V104.593C140.746 125.856 123.499 143.102 102.237 143.102Z" fill="url(#paint67_radial_84_3217)"/>
<path d="M102.237 143.102H62.8462V106.24C62.8462 93.9102 70.5217 85.9085 74.3595 83.4488L120.901 53.6813C126.453 50.2557 132.713 48.3657 139.21 48.3657H140.746H172.639C172.639 63.2495 160.473 75.4163 145.589 75.4163H140.746V104.593C140.746 125.856 123.499 143.102 102.237 143.102Z" fill="url(#paint68_radial_84_3217)" fill-opacity="0.7"/>
<path d="M102.237 143.102H62.8462V106.24C62.8462 93.9102 70.5217 85.9085 74.3595 83.4488L120.901 53.6813C126.453 50.2557 132.713 48.3657 139.21 48.3657H140.746H172.639C172.639 63.2495 160.473 75.4163 145.589 75.4163H140.746V104.593C140.746 125.856 123.499 143.102 102.237 143.102Z" fill="url(#paint69_radial_84_3217)"/>
<path d="M102.237 143.102H62.8462V106.24C62.8462 93.9102 70.5217 85.9085 74.3595 83.4488L120.901 53.6813C126.453 50.2557 132.713 48.3657 139.21 48.3657H140.746H172.639C172.639 63.2495 160.473 75.4163 145.589 75.4163H140.746V104.593C140.746 125.856 123.499 143.102 102.237 143.102Z" fill="url(#paint70_radial_84_3217)"/>
<path d="M102.237 143.102H62.8462V106.24C62.8462 93.9102 70.5217 85.9085 74.3595 83.4488L120.901 53.6813C126.453 50.2557 132.713 48.3657 139.21 48.3657H140.746H172.639C172.639 63.2495 160.473 75.4163 145.589 75.4163H140.746V104.593C140.746 125.856 123.499 143.102 102.237 143.102Z" fill="url(#paint71_radial_84_3217)"/>
<path d="M102.237 143.102H62.8462V106.24C62.8462 93.9102 70.5217 85.9085 74.3595 83.4488L120.901 53.6813C126.453 50.2557 132.713 48.3657 139.21 48.3657H140.746H172.639C172.639 63.2495 160.473 75.4163 145.589 75.4163H140.746V104.593C140.746 125.856 123.499 143.102 102.237 143.102Z" fill="url(#paint72_radial_84_3217)"/>
<path d="M102.237 143.102H62.8462V106.24C62.8462 93.9102 70.5217 85.9085 74.3595 83.4488L120.901 53.6813C126.453 50.2557 132.713 48.3657 139.21 48.3657H140.746H172.639C172.639 63.2495 160.473 75.4163 145.589 75.4163H140.746V104.593C140.746 125.856 123.499 143.102 102.237 143.102Z" fill="url(#paint73_radial_84_3217)"/>
<path d="M102.237 143.102H62.8462V106.24C62.8462 93.9102 70.5217 85.9085 74.3595 83.4488L120.901 53.6813C126.453 50.2557 132.713 48.3657 139.21 48.3657H140.746H172.639C172.639 63.2495 160.473 75.4163 145.589 75.4163H140.746V104.593C140.746 125.856 123.499 143.102 102.237 143.102Z" fill="url(#paint74_radial_84_3217)" fill-opacity="0.8"/>
<path d="M102.237 143.102H62.8462V106.24C62.8462 93.9102 70.5217 85.9085 74.3595 83.4488L120.901 53.6813C126.453 50.2557 132.713 48.3657 139.21 48.3657H140.746H172.639C172.639 63.2495 160.473 75.4163 145.589 75.4163H140.746V104.593C140.746 125.856 123.499 143.102 102.237 143.102Z" fill="url(#paint75_radial_84_3217)"/>
<path d="M102.237 143.102H62.8462V106.24C62.8462 93.9102 70.5217 85.9085 74.3595 83.4488L120.901 53.6813C126.453 50.2557 132.713 48.3657 139.21 48.3657H140.746H172.639C172.639 63.2495 160.473 75.4163 145.589 75.4163H140.746V104.593C140.746 125.856 123.499 143.102 102.237 143.102Z" fill="url(#paint76_radial_84_3217)" fill-opacity="0.7"/>
<path d="M63.1378 143.102V107.901C63.1378 94.08 53.0972 85.575 44.4741 85.575L27.5822 96.915C22.3847 100.459 19.1953 106.247 19.1953 112.626C19.1953 129.517 32.8978 143.102 49.6716 143.102H63.1378Z" fill="url(#paint77_radial_84_3217)"/>
<path d="M63.1378 143.102V107.901C63.1378 94.08 53.0972 85.575 44.4741 85.575L27.5822 96.915C22.3847 100.459 19.1953 106.247 19.1953 112.626C19.1953 129.517 32.8978 143.102 49.6716 143.102H63.1378Z" fill="url(#paint78_linear_84_3217)"/>
<path d="M44.0012 123.552C40.6937 123.552 38.095 120.953 38.095 117.646V111.031C38.095 107.723 40.6937 105.125 44.0012 105.125C47.3087 105.125 49.9075 107.723 49.9075 111.031V117.528C49.9075 120.835 47.3087 123.552 44.0012 123.552Z" fill="url(#paint79_radial_84_3217)"/>
<rect x="78.2578" y="97.978" width="11.4434" height="23.1531" rx="5.72168" fill="url(#paint80_linear_84_3217)"/>
<rect x="78.2578" y="97.978" width="11.4434" height="23.1531" rx="5.72168" fill="url(#paint81_linear_84_3217)"/>
<rect x="78.2578" y="97.978" width="11.4434" height="23.1531" rx="5.72168" fill="url(#paint82_radial_84_3217)"/>
<rect x="78.2578" y="97.978" width="11.4434" height="23.1531" rx="5.72168" fill="url(#paint83_radial_84_3217)"/>
<rect x="78.2578" y="97.978" width="11.4434" height="23.1531" rx="5.72168" fill="url(#paint84_linear_84_3217)"/>
<rect x="78.2578" y="97.978" width="11.4434" height="23.1531" rx="5.72168" fill="url(#paint85_radial_84_3217)"/>
<defs>
<radialGradient id="paint0_radial_84_3217" cx="0" cy="0" r="1" gradientUnits="userSpaceOnUse" gradientTransform="translate(254.589 323.232) rotate(-164.553) scale(21.7957 197.857)">
<stop stop-color="#BFB1CD" stop-opacity="0.53"/>
<stop offset="0.480692" stop-color="#BFB1CD" stop-opacity="0.244234"/>
<stop offset="0.75" stop-color="#BFB1CD" stop-opacity="0"/>
<stop offset="1" stop-color="#BFB1CD" stop-opacity="0"/>
</radialGradient>
<radialGradient id="paint1_radial_84_3217" cx="0" cy="0" r="1" gradientUnits="userSpaceOnUse" gradientTransform="translate(254.589 323.232) rotate(-162.067) scale(9.07751 82.4038)">
<stop stop-color="#BFB1CD"/>
<stop offset="0.25" stop-color="#BFB1CD" stop-opacity="0.755369"/>
<stop offset="0.5" stop-color="#BFB1CD" stop-opacity="0.244234"/>
<stop offset="0.75" stop-color="#BFB1CD" stop-opacity="0.0534418"/>
<stop offset="1" stop-color="#BFB1CD" stop-opacity="0"/>
</radialGradient>
<linearGradient id="paint2_linear_84_3217" x1="256.54" y1="349.328" x2="256.54" y2="335.471" gradientUnits="userSpaceOnUse">
<stop offset="0.115444" stop-color="#A476CE"/>
<stop offset="0.784775" stop-color="#A177C9" stop-opacity="0.164079"/>
<stop offset="1" stop-color="#A177C8" stop-opacity="0"/>
</linearGradient>
<linearGradient id="paint3_linear_84_3217" x1="255.437" y1="280.731" x2="265.254" y2="308.988" gradientUnits="userSpaceOnUse">
<stop stop-color="#857092"/>
<stop offset="0.725586" stop-color="#857092" stop-opacity="0.235921"/>
<stop offset="1" stop-color="#857092" stop-opacity="0"/>
</linearGradient>
<linearGradient id="paint4_linear_84_3217" x1="184.216" y1="226.025" x2="184.216" y2="344.032" gradientUnits="userSpaceOnUse">
<stop stop-color="#A898B5"/>
<stop offset="1" stop-color="#B9ADC6"/>
</linearGradient>
<radialGradient id="paint5_radial_84_3217" cx="0" cy="0" r="1" gradientUnits="userSpaceOnUse" gradientTransform="translate(196.212 320.879) rotate(-160.145) scale(11.2975 91.9067)">
<stop stop-color="#BFB1CD"/>
<stop offset="0.0962287" stop-color="#BFB1CD"/>
<stop offset="0.381783" stop-color="#BFB1CD" stop-opacity="0.244234"/>
<stop offset="0.594489" stop-color="#BFB1CD" stop-opacity="0"/>
<stop offset="1" stop-color="#BFB1CD" stop-opacity="0"/>
</radialGradient>
<radialGradient id="paint6_radial_84_3217" cx="0" cy="0" r="1" gradientUnits="userSpaceOnUse" gradientTransform="translate(197.226 299.057) rotate(161.341) scale(12.7636 103.833)">
<stop stop-color="#BFB1CD"/>
<stop offset="0.142832" stop-color="#BFB1CD" stop-opacity="0.88"/>
<stop offset="0.395896" stop-color="#BFB1CD" stop-opacity="0.244234"/>
<stop offset="0.605206" stop-color="#BFB1CD" stop-opacity="0"/>
<stop offset="1" stop-color="#BFB1CD" stop-opacity="0"/>
</radialGradient>
<linearGradient id="paint7_linear_84_3217" x1="202.289" y1="259.69" x2="190.477" y2="289.96" gradientUnits="userSpaceOnUse">
<stop stop-color="#857092"/>
<stop offset="0.748759" stop-color="#857092" stop-opacity="0.192428"/>
<stop offset="1" stop-color="#857092" stop-opacity="0"/>
</linearGradient>
<radialGradient id="paint8_radial_84_3217" cx="0" cy="0" r="1" gradientUnits="userSpaceOnUse" gradientTransform="translate(207.901 329.006) rotate(-164.217) scale(9.81449 53.0304)">
<stop offset="0.122395" stop-color="#857092"/>
<stop offset="0.875" stop-color="#857092" stop-opacity="0.0677083"/>
<stop offset="1" stop-color="#857092" stop-opacity="0"/>
</radialGradient>
<radialGradient id="paint9_radial_84_3217" cx="0" cy="0" r="1" gradientUnits="userSpaceOnUse" gradientTransform="translate(210.314 297.758) rotate(163.926) scale(12.1913 65.8729)">
<stop stop-color="#857092"/>
<stop offset="0.641773" stop-color="#857092" stop-opacity="0.192428"/>
<stop offset="1" stop-color="#857092" stop-opacity="0"/>
</radialGradient>
<linearGradient id="paint10_linear_84_3217" x1="185.324" y1="351.422" x2="185.324" y2="335.856" gradientUnits="userSpaceOnUse">
<stop offset="0.18959" stop-color="#A476CE"/>
<stop offset="0.834587" stop-color="#A177C9" stop-opacity="0.130232"/>
<stop offset="1" stop-color="#A177C8" stop-opacity="0"/>
</linearGradient>
<radialGradient id="paint11_radial_84_3217" cx="0" cy="0" r="1" gradientUnits="userSpaceOnUse" gradientTransform="translate(175.826 286.724) rotate(-10.0602) scale(11.2324 36.8507)">
<stop stop-color="#857092"/>
<stop offset="0.755208" stop-color="#857092" stop-opacity="0.135417"/>
<stop offset="1" stop-color="#857092" stop-opacity="0"/>
</radialGradient>
<radialGradient id="paint12_radial_84_3217" cx="0" cy="0" r="1" gradientUnits="userSpaceOnUse" gradientTransform="translate(177.813 322.218) rotate(15.98) scale(9.13069 29.7442)">
<stop stop-color="#857092"/>
<stop offset="0.712987" stop-color="#857092" stop-opacity="0.179882"/>
<stop offset="1" stop-color="#857092" stop-opacity="0"/>
</radialGradient>
<linearGradient id="paint13_linear_84_3217" x1="281.654" y1="280.731" x2="214.839" y2="280.731" gradientUnits="userSpaceOnUse">
<stop offset="0.146064" stop-color="#CA5E6D"/>
<stop offset="1" stop-color="#D36A78"/>
</linearGradient>
<linearGradient id="paint14_linear_84_3217" x1="258.815" y1="290.373" x2="259.776" y2="271.9" gradientUnits="userSpaceOnUse">
<stop stop-color="#AE4868"/>
<stop offset="1" stop-color="#BC5777" stop-opacity="0"/>
</linearGradient>
<linearGradient id="paint15_linear_84_3217" x1="208.195" y1="95.7918" x2="208.195" y2="357.143" gradientUnits="userSpaceOnUse">
<stop stop-color="#DDD9E1"/>
<stop offset="1" stop-color="#D5C4E7"/>
</linearGradient>
<radialGradient id="paint16_radial_84_3217" cx="0" cy="0" r="1" gradientUnits="userSpaceOnUse" gradientTransform="translate(304.172 150.425) rotate(136.273) scale(93.9911 70.9023)">
<stop stop-color="#FEFBFF"/>
<stop offset="1" stop-color="#FEFBFF" stop-opacity="0"/>
</radialGradient>
<radialGradient id="paint17_radial_84_3217" cx="0" cy="0" r="1" gradientUnits="userSpaceOnUse" gradientTransform="translate(158.73 334.995) rotate(-51.5939) scale(286.408 208.849)">
<stop offset="0.912065" stop-color="#D9D9DA" stop-opacity="0"/>
<stop offset="1" stop-color="#D9D9DA"/>
</radialGradient>
<linearGradient id="paint18_linear_84_3217" x1="234.035" y1="135.659" x2="234.035" y2="92.1004" gradientUnits="userSpaceOnUse">
<stop stop-color="#D9D9DA" stop-opacity="0"/>
<stop offset="1" stop-color="#D9D9DA"/>
</linearGradient>
<radialGradient id="paint19_radial_84_3217" cx="0" cy="0" r="1" gradientUnits="userSpaceOnUse" gradientTransform="translate(100.775 135.29) rotate(60.7512) scale(52.8851 53.0071)">
<stop stop-color="#C4B9D0"/>
<stop offset="1" stop-color="#C4B9D0" stop-opacity="0"/>
</radialGradient>
<radialGradient id="paint20_radial_84_3217" cx="0" cy="0" r="1" gradientUnits="userSpaceOnUse" gradientTransform="translate(158.361 320.968) rotate(-135.807) scale(27.8016 21.2147)">
<stop stop-color="#A476CE"/>
<stop offset="1" stop-color="#A177C8" stop-opacity="0"/>
</radialGradient>
<radialGradient id="paint21_radial_84_3217" cx="0" cy="0" r="1" gradientUnits="userSpaceOnUse" gradientTransform="translate(244.74 326.874) rotate(-59.0826) scale(78.3109 65.0761)">
<stop stop-color="#A476CE"/>
<stop offset="1" stop-color="#A177C8" stop-opacity="0"/>
</radialGradient>
<radialGradient id="paint22_radial_84_3217" cx="0" cy="0" r="1" gradientUnits="userSpaceOnUse" gradientTransform="translate(318.053 310.034) rotate(-180) scale(14.5156 164.45)">
<stop stop-color="#FEFBFF" stop-opacity="0.62"/>
<stop offset="0.254978" stop-color="#FEFBFF" stop-opacity="0.483276"/>
<stop offset="0.630654" stop-color="#FEFBFF" stop-opacity="0.164251"/>
<stop offset="1" stop-color="#FEFBFF" stop-opacity="0"/>
</radialGradient>
<radialGradient id="paint23_radial_84_3217" cx="0" cy="0" r="1" gradientUnits="userSpaceOnUse" gradientTransform="translate(312.553 235.381) rotate(139.399) scale(40.4296 47.4082)">
<stop stop-color="#FEFBFF" stop-opacity="0.62"/>
<stop offset="0.254978" stop-color="#FEFBFF" stop-opacity="0.483276"/>
<stop offset="0.751872" stop-color="#FEFBFF" stop-opacity="0.164251"/>
<stop offset="1" stop-color="#FEFBFF" stop-opacity="0"/>
</radialGradient>
<radialGradient id="paint24_radial_84_3217" cx="0" cy="0" r="1" gradientUnits="userSpaceOnUse" gradientTransform="translate(149.619 268.776) rotate(-180) scale(19.4143 36.736)">
<stop stop-color="#FEFBFF" stop-opacity="0.44"/>
<stop offset="0.177083" stop-color="#FEFBFF" stop-opacity="0.425"/>
<stop offset="0.273031" stop-color="#FEFBFF" stop-opacity="0.379513"/>
<stop offset="0.701375" stop-color="#FEFBFF" stop-opacity="0.10234"/>
<stop offset="1" stop-color="#FEFBFF" stop-opacity="0"/>
</radialGradient>
<radialGradient id="paint25_radial_84_3217" cx="0" cy="0" r="1" gradientUnits="userSpaceOnUse" gradientTransform="translate(138.423 285.157) rotate(-149.237) scale(16.3388 25.9915)">
<stop stop-color="#FEFBFF" stop-opacity="0.56"/>
<stop offset="0.381241" stop-color="#FEFBFF" stop-opacity="0.379513"/>
<stop offset="0.774201" stop-color="#FEFBFF" stop-opacity="0.10234"/>
<stop offset="1" stop-color="#FEFBFF" stop-opacity="0"/>
</radialGradient>
<radialGradient id="paint26_radial_84_3217" cx="0" cy="0" r="1" gradientUnits="userSpaceOnUse" gradientTransform="translate(130.066 318.25) rotate(180) scale(10.8787 41.8745)">
<stop stop-color="#FEFBFF" stop-opacity="0.56"/>
<stop offset="0.161458" stop-color="#FEFBFF" stop-opacity="0.525441"/>
<stop offset="0.32641" stop-color="#FEFBFF" stop-opacity="0.379513"/>
<stop offset="0.716347" stop-color="#FEFBFF" stop-opacity="0.10234"/>
<stop offset="1" stop-color="#FEFBFF" stop-opacity="0"/>
</radialGradient>
<linearGradient id="paint27_linear_84_3217" x1="214.945" y1="365.634" x2="214.945" y2="327.773" gradientUnits="userSpaceOnUse">
<stop offset="0.365367" stop-color="#A476CE"/>
<stop offset="0.781582" stop-color="#A177C9" stop-opacity="0.144944"/>
<stop offset="1" stop-color="#A177C8" stop-opacity="0"/>
</linearGradient>
<linearGradient id="paint28_linear_84_3217" x1="183.093" y1="289.96" x2="147.656" y2="289.96" gradientUnits="userSpaceOnUse">
<stop stop-color="#AC92C4"/>
<stop offset="0.893216" stop-color="#AC92C4" stop-opacity="0.0880388"/>
<stop offset="1" stop-color="#AC92C4" stop-opacity="0"/>
</linearGradient>
<linearGradient id="paint29_linear_84_3217" x1="358.805" y1="235.327" x2="358.805" y2="189.738" gradientUnits="userSpaceOnUse">
<stop stop-color="#B9ADC5"/>
<stop offset="1" stop-color="#B9ADC5" stop-opacity="0"/>
</linearGradient>
<radialGradient id="paint30_radial_84_3217" cx="0" cy="0" r="1" gradientUnits="userSpaceOnUse" gradientTransform="translate(327.797 213.087) rotate(-5.91302) scale(7.94954 42.8593)">
<stop stop-color="#C9C2D1"/>
<stop offset="0.431297" stop-color="#C9C2D1" stop-opacity="0.454889"/>
<stop offset="1" stop-color="#C9C2D1" stop-opacity="0"/>
</radialGradient>
<radialGradient id="paint31_radial_84_3217" cx="0" cy="0" r="1" gradientUnits="userSpaceOnUse" gradientTransform="translate(300.111 187.893) rotate(27.3567) scale(47.7966 93.2124)">
<stop offset="0.675214" stop-color="#C9C2D1" stop-opacity="0"/>
<stop offset="1" stop-color="#C9C2D1"/>
</radialGradient>
<radialGradient id="paint32_radial_84_3217" cx="0" cy="0" r="1" gradientUnits="userSpaceOnUse" gradientTransform="translate(238.465 294.39) rotate(-135) scale(114.328 75.6136)">
<stop stop-color="#AC92C4"/>
<stop offset="1" stop-color="#AC92C4" stop-opacity="0"/>
</radialGradient>
<radialGradient id="paint33_radial_84_3217" cx="0" cy="0" r="1" gradientUnits="userSpaceOnUse" gradientTransform="translate(191.584 279.255) rotate(-105.866) scale(36.4572 95.7053)">
<stop stop-color="#A476CE"/>
<stop offset="0.816776" stop-color="#A177C9" stop-opacity="0.118293"/>
<stop offset="1" stop-color="#A177C8" stop-opacity="0"/>
</radialGradient>
<radialGradient id="paint34_radial_84_3217" cx="0" cy="0" r="1" gradientUnits="userSpaceOnUse" gradientTransform="translate(255.683 236.374) rotate(180) scale(3.11664 27.0525)">
<stop offset="0.104905" stop-color="#D8CDE4"/>
<stop offset="0.653739" stop-color="#D8CDE4" stop-opacity="0.235671"/>
<stop offset="1" stop-color="#D8CDE4" stop-opacity="0"/>
</radialGradient>
<radialGradient id="paint35_radial_84_3217" cx="0" cy="0" r="1" gradientUnits="userSpaceOnUse" gradientTransform="translate(255.785 251.502) rotate(180) scale(1.64596 28.7558)">
<stop stop-color="#D8CDE4"/>
<stop offset="0.653739" stop-color="#D8CDE4" stop-opacity="0.235671"/>
<stop offset="1" stop-color="#D8CDE4" stop-opacity="0"/>
</radialGradient>
<radialGradient id="paint36_radial_84_3217" cx="0" cy="0" r="1" gradientUnits="userSpaceOnUse" gradientTransform="translate(167.663 260.07) scale(14.4385 12.553)">
<stop stop-color="#857092" stop-opacity="0.46"/>
<stop offset="0.640579" stop-color="#857092" stop-opacity="0.0677083"/>
<stop offset="0.920069" stop-color="#857092" stop-opacity="0.0296777"/>
<stop offset="1" stop-color="#857092" stop-opacity="0"/>
</radialGradient>
<radialGradient id="paint37_radial_84_3217" cx="0" cy="0" r="1" gradientUnits="userSpaceOnUse" gradientTransform="translate(181.44 261.624) rotate(-89.4955) scale(8.40363 40.2643)">
<stop stop-color="#857092" stop-opacity="0.54"/>
<stop offset="0.640579" stop-color="#857092" stop-opacity="0.0677083"/>
<stop offset="0.920069" stop-color="#857092" stop-opacity="0.0296777"/>
<stop offset="1" stop-color="#857092" stop-opacity="0"/>
</radialGradient>
<linearGradient id="paint38_linear_84_3217" x1="113.557" y1="264.12" x2="113.557" y2="236.435" gradientUnits="userSpaceOnUse">
<stop stop-color="#B49FC8"/>
<stop offset="1" stop-color="#B49FC8" stop-opacity="0"/>
</linearGradient>
<linearGradient id="paint39_linear_84_3217" x1="331.304" y1="257.106" x2="345.7" y2="257.106" gradientUnits="userSpaceOnUse">
<stop stop-color="#BFB0C4"/>
<stop offset="1" stop-color="#BFB0C4" stop-opacity="0"/>
</linearGradient>
<linearGradient id="paint40_linear_84_3217" x1="336.472" y1="257.106" x2="344.028" y2="257.106" gradientUnits="userSpaceOnUse">
<stop stop-color="#AA9EAE"/>
<stop offset="1" stop-color="#BFB0C4" stop-opacity="0"/>
</linearGradient>
<linearGradient id="paint41_linear_84_3217" x1="348.469" y1="237.357" x2="344.028" y2="237.357" gradientUnits="userSpaceOnUse">
<stop stop-color="#F5F1F7" stop-opacity="0"/>
<stop offset="0.453125" stop-color="#F5F1F7"/>
<stop offset="1" stop-color="#F5F1F7" stop-opacity="0"/>
</linearGradient>
<radialGradient id="paint42_radial_84_3217" cx="0" cy="0" r="1" gradientUnits="userSpaceOnUse" gradientTransform="translate(349.945 287.376) rotate(90) scale(30.085 21.4675)">
<stop offset="0.460854" stop-color="#635B6A" stop-opacity="0"/>
<stop offset="1" stop-color="#645D69"/>
</radialGradient>
<linearGradient id="paint43_linear_84_3217" x1="345.331" y1="312.108" x2="345.331" y2="283.131" gradientUnits="userSpaceOnUse">
<stop stop-color="#5F4E70"/>
<stop offset="1" stop-color="#5F4E70" stop-opacity="0"/>
</linearGradient>
<radialGradient id="paint44_radial_84_3217" cx="0" cy="0" r="1" gradientUnits="userSpaceOnUse" gradientTransform="translate(348.91 265.271) rotate(-151.388) scale(5.39722 14.3918)">
<stop stop-color="#BAB7BC" stop-opacity="0.84"/>
<stop offset="0.606491" stop-color="#BAB7BC" stop-opacity="0.210052"/>
<stop offset="0.796751" stop-color="#BAB7BC" stop-opacity="0.0945848"/>
<stop offset="1" stop-color="#BAB7BC" stop-opacity="0"/>
</radialGradient>
<radialGradient id="paint45_radial_84_3217" cx="0" cy="0" r="1" gradientUnits="userSpaceOnUse" gradientTransform="translate(347.403 302.444) rotate(-36.2538) scale(5.22634 9.17077)">
<stop stop-color="#BAB7BC" stop-opacity="0.46"/>
<stop offset="0.466347" stop-color="#BAB7BC" stop-opacity="0.210052"/>
<stop offset="0.719332" stop-color="#BAB7BC" stop-opacity="0.0945848"/>
<stop offset="1" stop-color="#BAB7BC" stop-opacity="0"/>
</radialGradient>
<radialGradient id="paint46_radial_84_3217" cx="0" cy="0" r="1" gradientUnits="userSpaceOnUse" gradientTransform="translate(348.38 287.012) rotate(-180) scale(9.30613 46.3944)">
<stop stop-color="#BAB7BC" stop-opacity="0.63"/>
<stop offset="0.565055" stop-color="#BAB7BC" stop-opacity="0.210052"/>
<stop offset="0.737652" stop-color="#BAB7BC" stop-opacity="0.0945848"/>
<stop offset="0.843319" stop-color="#BAB7BC" stop-opacity="0.0439753"/>
<stop offset="1" stop-color="#BAB7BC" stop-opacity="0"/>
</radialGradient>
<radialGradient id="paint47_radial_84_3217" cx="0" cy="0" r="1" gradientUnits="userSpaceOnUse" gradientTransform="translate(353.297 285.178) rotate(180) scale(7.90745 42.926)">
<stop offset="0.376244" stop-color="#77727D"/>
<stop offset="0.735929" stop-color="#77727D" stop-opacity="0.124023"/>
<stop offset="0.899318" stop-color="#77727D" stop-opacity="0.0527674"/>
<stop offset="1" stop-color="#77727D" stop-opacity="0"/>
</radialGradient>
<radialGradient id="paint48_radial_84_3217" cx="0" cy="0" r="1" gradientUnits="userSpaceOnUse" gradientTransform="translate(116.279 42.9318) rotate(64.0256) scale(16.0141 5.21982)">
<stop stop-color="#FED9AA"/>
<stop offset="1" stop-color="#F4CD98"/>
</radialGradient>
<radialGradient id="paint49_radial_84_3217" cx="0" cy="0" r="1" gradientUnits="userSpaceOnUse" gradientTransform="translate(270.949 167.036) rotate(180) scale(89.7012 48.7758)">
<stop stop-color="#7D7A83"/>
<stop offset="1" stop-color="#6F6B73"/>
</radialGradient>
<radialGradient id="paint50_radial_84_3217" cx="0" cy="0" r="1" gradientUnits="userSpaceOnUse" gradientTransform="translate(225.087 131.229) rotate(-90) scale(28.793 136.028)">
<stop stop-color="#757575"/>
<stop offset="1" stop-color="#757575" stop-opacity="0"/>
</radialGradient>
<linearGradient id="paint51_linear_84_3217" x1="296.789" y1="153.378" x2="296.789" y2="193.245" gradientUnits="userSpaceOnUse">
<stop stop-color="#8F8D91"/>
<stop offset="1" stop-color="#87848A"/>
</linearGradient>
<linearGradient id="paint52_linear_84_3217" x1="162.422" y1="233.851" x2="162.422" y2="195.46" gradientUnits="userSpaceOnUse">
<stop stop-color="#6A6075"/>
<stop offset="1" stop-color="#6E6874"/>
</linearGradient>
<radialGradient id="paint53_radial_84_3217" cx="0" cy="0" r="1" gradientUnits="userSpaceOnUse" gradientTransform="translate(198.223 236.104) rotate(-128.397) scale(34.1957 76.107)">
<stop stop-color="#5B4B6A"/>
<stop offset="0.451693" stop-color="#5B4B6A" stop-opacity="0.529925"/>
<stop offset="1" stop-color="#5B4B6A" stop-opacity="0"/>
</radialGradient>
<radialGradient id="paint54_radial_84_3217" cx="0" cy="0" r="1" gradientUnits="userSpaceOnUse" gradientTransform="translate(77.1947 208.302) rotate(-22.0521) scale(65.668 93.1287)">
<stop offset="0.0570211" stop-color="#7E7C81"/>
<stop offset="0.885379" stop-color="#6E6972"/>
</radialGradient>
<linearGradient id="paint55_linear_84_3217" x1="245.109" y1="218.347" x2="274.227" y2="234.767" gradientUnits="userSpaceOnUse">
<stop stop-color="#6A5F76"/>
<stop offset="1" stop-color="#756E7C"/>
</linearGradient>
<linearGradient id="paint56_linear_84_3217" x1="79.9189" y1="61.093" x2="147.416" y2="159.233" gradientUnits="userSpaceOnUse">
<stop stop-color="#C4C4C5"/>
<stop offset="0.0725486" stop-color="#DEDAE1"/>
</linearGradient>
<linearGradient id="paint57_linear_84_3217" x1="126.984" y1="43.7433" x2="126.984" y2="58.6935" gradientUnits="userSpaceOnUse">
<stop stop-color="#C4C4C5"/>
<stop offset="1" stop-color="#C4C4C5" stop-opacity="0"/>
</linearGradient>
<linearGradient id="paint58_linear_84_3217" x1="86.7478" y1="68.8448" x2="104.467" y2="93.2081" gradientUnits="userSpaceOnUse">
<stop offset="0.214252" stop-color="#6E6B71"/>
<stop offset="1" stop-color="#6E6B71" stop-opacity="0"/>
</linearGradient>
<linearGradient id="paint59_linear_84_3217" x1="117.743" y1="143.102" x2="117.743" y2="108.712" gradientUnits="userSpaceOnUse">
<stop stop-color="#5B4B6A"/>
<stop offset="1" stop-color="#5B4B6A" stop-opacity="0"/>
</linearGradient>
<radialGradient id="paint60_radial_84_3217" cx="0" cy="0" r="1" gradientUnits="userSpaceOnUse" gradientTransform="translate(161.314 83.6105) rotate(-142.125) scale(25.2531 28.2725)">
<stop offset="0.266304" stop-color="#5B4B6A"/>
<stop offset="0.83015" stop-color="#5B4B6A" stop-opacity="0.185862"/>
<stop offset="1" stop-color="#5B4B6A" stop-opacity="0"/>
</radialGradient>
<radialGradient id="paint61_radial_84_3217" cx="0" cy="0" r="1" gradientUnits="userSpaceOnUse" gradientTransform="translate(143.078 89.9279) rotate(180) scale(10.7403 21.9392)">
<stop offset="0.266304" stop-color="#5B4B6A"/>
<stop offset="0.714025" stop-color="#5B4B6A" stop-opacity="0.317093"/>
<stop offset="1" stop-color="#5B4B6A" stop-opacity="0"/>
</radialGradient>
<radialGradient id="paint62_radial_84_3217" cx="0" cy="0" r="1" gradientUnits="userSpaceOnUse" gradientTransform="translate(145.313 111.006) rotate(-158.477) scale(14.2129 30.673)">
<stop stop-color="#5B4B6A"/>
<stop offset="0.544872" stop-color="#5B4B6A" stop-opacity="0.529925"/>
<stop offset="1" stop-color="#5B4B6A" stop-opacity="0"/>
</radialGradient>
<radialGradient id="paint63_radial_84_3217" cx="0" cy="0" r="1" gradientUnits="userSpaceOnUse" gradientTransform="translate(81.1403 116.494) rotate(90) scale(6.25161)">
<stop offset="0.42872" stop-color="#605B65"/>
<stop offset="0.642336" stop-color="#605B65" stop-opacity="0.734173"/>
<stop offset="1" stop-color="#605B65" stop-opacity="0"/>
</radialGradient>
<radialGradient id="paint64_radial_84_3217" cx="0" cy="0" r="1" gradientUnits="userSpaceOnUse" gradientTransform="translate(81.1403 112.733) rotate(90) scale(6.45491)">
<stop offset="0.42872" stop-color="#605B65"/>
<stop offset="0.642336" stop-color="#605B65" stop-opacity="0.734173"/>
<stop offset="1" stop-color="#605B65" stop-opacity="0"/>
</radialGradient>
<radialGradient id="paint65_radial_84_3217" cx="0" cy="0" r="1" gradientUnits="userSpaceOnUse" gradientTransform="translate(81.1403 104.398) rotate(90) scale(6.09913)">
<stop offset="0.42872" stop-color="#605B65"/>
<stop offset="0.641825" stop-color="#605B65" stop-opacity="0.734173"/>
<stop offset="1" stop-color="#605B65" stop-opacity="0"/>
</radialGradient>
<radialGradient id="paint66_radial_84_3217" cx="0" cy="0" r="1" gradientUnits="userSpaceOnUse" gradientTransform="translate(81.1403 108.464) rotate(90) scale(6.50573 6.50574)">
<stop offset="0.42872" stop-color="#605B65"/>
<stop offset="0.641825" stop-color="#605B65" stop-opacity="0.734173"/>
<stop offset="1" stop-color="#605B65" stop-opacity="0"/>
</radialGradient>
<radialGradient id="paint67_radial_84_3217" cx="0" cy="0" r="1" gradientUnits="userSpaceOnUse" gradientTransform="translate(124.473 90.8733) rotate(119.659) scale(34.6401 25.8502)">
<stop stop-color="#97959A" stop-opacity="0.63"/>
<stop offset="1" stop-color="#97959A" stop-opacity="0"/>
</radialGradient>
<radialGradient id="paint68_radial_84_3217" cx="0" cy="0" r="1" gradientUnits="userSpaceOnUse" gradientTransform="translate(132.364 75.7442) rotate(-142.559) scale(5.98881 13.294)">
<stop stop-color="#97959A"/>
<stop offset="0.517046" stop-color="#97959A" stop-opacity="0.42"/>
<stop offset="0.832708" stop-color="#97959A" stop-opacity="0.117774"/>
<stop offset="1" stop-color="#97959A" stop-opacity="0"/>
</radialGradient>
<radialGradient id="paint69_radial_84_3217" cx="0" cy="0" r="1" gradientUnits="userSpaceOnUse" gradientTransform="translate(130.012 89.9089) rotate(-171.254) scale(12.0731 27.3799)">
<stop stop-color="#97959A"/>
<stop offset="0.272747" stop-color="#97959A" stop-opacity="0.777771"/>
<stop offset="0.629274" stop-color="#97959A" stop-opacity="0.229462"/>
<stop offset="1" stop-color="#97959A" stop-opacity="0"/>
</radialGradient>
<radialGradient id="paint70_radial_84_3217" cx="0" cy="0" r="1" gradientUnits="userSpaceOnUse" gradientTransform="translate(166.875 55.3294) rotate(-144.782) scale(5.44932 14.9133)">
<stop stop-color="#97959A"/>
<stop offset="0.272747" stop-color="#97959A" stop-opacity="0.777771"/>
<stop offset="0.629274" stop-color="#97959A" stop-opacity="0.229462"/>
<stop offset="1" stop-color="#97959A" stop-opacity="0"/>
</radialGradient>
<radialGradient id="paint71_radial_84_3217" cx="0" cy="0" r="1" gradientUnits="userSpaceOnUse" gradientTransform="translate(156.665 61.3603) rotate(-115.328) scale(9.51924 31.1675)">
<stop stop-color="#97959A"/>
<stop offset="0.241205" stop-color="#97959A" stop-opacity="0.777771"/>
<stop offset="0.664539" stop-color="#97959A" stop-opacity="0.229462"/>
<stop offset="1" stop-color="#97959A" stop-opacity="0"/>
</radialGradient>
<radialGradient id="paint72_radial_84_3217" cx="0" cy="0" r="1" gradientUnits="userSpaceOnUse" gradientTransform="translate(141.254 63.7091) rotate(-116.404) scale(12.958 31.6432)">
<stop stop-color="#97959A" stop-opacity="0.42"/>
<stop offset="0.27705" stop-color="#97959A" stop-opacity="0.28"/>
<stop offset="0.664539" stop-color="#97959A" stop-opacity="0"/>
<stop offset="1" stop-color="#97959A" stop-opacity="0"/>
</radialGradient>
<radialGradient id="paint73_radial_84_3217" cx="0" cy="0" r="1" gradientUnits="userSpaceOnUse" gradientTransform="translate(171.061 68.0236) rotate(-148.736) scale(13.0611 29.713)">
<stop stop-color="#5B4B6A"/>
<stop offset="0.775243" stop-color="#5B4B6A" stop-opacity="0.13886"/>
<stop offset="1" stop-color="#5B4B6A" stop-opacity="0"/>
</radialGradient>
<radialGradient id="paint74_radial_84_3217" cx="0" cy="0" r="1" gradientUnits="userSpaceOnUse" gradientTransform="translate(146.399 79.8542) rotate(-148.753) scale(12.0243 10.5608)">
<stop stop-color="#5B4B6A"/>
<stop offset="0.794862" stop-color="#5B4B6A" stop-opacity="0.0986854"/>
<stop offset="1" stop-color="#5B4B6A" stop-opacity="0"/>
</radialGradient>
<radialGradient id="paint75_radial_84_3217" cx="0" cy="0" r="1" gradientUnits="userSpaceOnUse" gradientTransform="translate(174.984 59.5573) rotate(-158.875) scale(7.32681 21.0974)">
<stop stop-color="#605B65"/>
<stop offset="0.595543" stop-color="#605B65" stop-opacity="0.734173"/>
<stop offset="0.891235" stop-color="#605B65" stop-opacity="0.13"/>
<stop offset="1" stop-color="#605B65" stop-opacity="0"/>
</radialGradient>
<radialGradient id="paint76_radial_84_3217" cx="0" cy="0" r="1" gradientUnits="userSpaceOnUse" gradientTransform="translate(162.283 47.5269) rotate(87.041) scale(4.63656 53.9387)">
<stop stop-color="#605B65"/>
<stop offset="0.390907" stop-color="#605B65" stop-opacity="0.734173"/>
<stop offset="0.721042" stop-color="#605B65" stop-opacity="0.227364"/>
<stop offset="1" stop-color="#605B65" stop-opacity="0"/>
</radialGradient>
<radialGradient id="paint77_radial_84_3217" cx="0" cy="0" r="1" gradientUnits="userSpaceOnUse" gradientTransform="translate(25.8398 117.571) rotate(8.44423) scale(37.7067 44.4278)">
<stop stop-color="#E28487"/>
<stop offset="1" stop-color="#DB7681"/>
</radialGradient>
<linearGradient id="paint78_linear_84_3217" x1="61.8311" y1="145.995" x2="57.2168" y2="122.37" gradientUnits="userSpaceOnUse">
<stop stop-color="#AE4868"/>
<stop offset="1" stop-color="#BC5777" stop-opacity="0"/>
</linearGradient>
<radialGradient id="paint79_radial_84_3217" cx="0" cy="0" r="1" gradientUnits="userSpaceOnUse" gradientTransform="translate(41.7128 116.648) scale(14.5811 30.9355)">
<stop stop-color="#B51C82" stop-opacity="0.25"/>
<stop offset="0.632911" stop-color="#B51C82"/>
</radialGradient>
<linearGradient id="paint80_linear_84_3217" x1="87.8555" y1="109.555" x2="79.9275" y2="109.555" gradientUnits="userSpaceOnUse">
<stop stop-color="#594C4F"/>
<stop offset="0.210983" stop-color="#54474A"/>
<stop offset="0.403193" stop-color="#493B41"/>
<stop offset="0.701155" stop-color="#372931"/>
<stop offset="0.904863" stop-color="#31232C"/>
</linearGradient>
<linearGradient id="paint81_linear_84_3217" x1="91.4892" y1="123.733" x2="91.0631" y2="113.874" gradientUnits="userSpaceOnUse">
<stop offset="0.193243" stop-color="#552D52"/>
<stop offset="1" stop-color="#552D52" stop-opacity="0"/>
</linearGradient>
<radialGradient id="paint82_radial_84_3217" cx="0" cy="0" r="1" gradientUnits="userSpaceOnUse" gradientTransform="translate(80.7447 121.982) rotate(-70.9065) scale(5.30312 15.076)">
<stop stop-color="#31232C"/>
<stop offset="0.780818" stop-color="#31232C" stop-opacity="0.197917"/>
<stop offset="1" stop-color="#31232C" stop-opacity="0"/>
</radialGradient>
<radialGradient id="paint83_radial_84_3217" cx="0" cy="0" r="1" gradientUnits="userSpaceOnUse" gradientTransform="translate(86.7207 120.659) rotate(-129.174) scale(2.85212 8.10816)">
<stop stop-color="#31232C"/>
<stop offset="0.720903" stop-color="#31232C" stop-opacity="0.197917"/>
<stop offset="0.8125" stop-color="#31232C" stop-opacity="0.0775612"/>
<stop offset="1" stop-color="#31232C" stop-opacity="0"/>
</radialGradient>
<linearGradient id="paint84_linear_84_3217" x1="90.141" y1="108.98" x2="87.0956" y2="108.98" gradientUnits="userSpaceOnUse">
<stop stop-color="#31232C"/>
<stop offset="0.757576" stop-color="#31232C" stop-opacity="0.197917"/>
<stop offset="1" stop-color="#31232C" stop-opacity="0"/>
</linearGradient>
<radialGradient id="paint85_radial_84_3217" cx="0" cy="0" r="1" gradientUnits="userSpaceOnUse" gradientTransform="translate(85.1136 97.8893) rotate(93.6678) scale(5.02166 14.2759)">
<stop stop-color="#31232C"/>
<stop offset="0.757576" stop-color="#31232C" stop-opacity="0.197917"/>
<stop offset="1" stop-color="#31232C" stop-opacity="0"/>
</radialGradient>
</defs>
</svg>
