<svg width="150" height="150" viewBox="0 0 150 150" fill="none" xmlns="http://www.w3.org/2000/svg">
<path d="M46.875 46.875H28.5469C17.9531 46.875 9.375 38.2969 9.375 27.7031V21.6562C9.375 20.0625 10.6875 18.75 12.2812 18.75H27.6562C38.2969 18.75 46.875 27.3281 46.875 37.9219V46.875Z" fill="url(#paint0_linear_84_3845)"/>
<path d="M46.875 46.875H28.5469C17.9531 46.875 9.375 38.2969 9.375 27.7031V21.6562C9.375 20.0625 10.6875 18.75 12.2812 18.75H27.6562C38.2969 18.75 46.875 27.3281 46.875 37.9219V46.875Z" fill="url(#paint1_linear_84_3845)"/>
<path d="M46.875 46.875H28.5469C17.9531 46.875 9.375 38.2969 9.375 27.7031V21.6562C9.375 20.0625 10.6875 18.75 12.2812 18.75H27.6562C38.2969 18.75 46.875 27.3281 46.875 37.9219V46.875Z" fill="url(#paint2_radial_84_3845)"/>
<path d="M75 140.578C82.0241 140.578 88.7605 137.788 93.7273 132.821C98.6941 127.854 101.484 121.118 101.484 114.094C101.484 107.07 98.6941 100.333 93.7273 95.3665C88.7605 90.3997 82.0241 87.6094 75 87.6094C67.9759 87.6094 61.2395 90.3997 56.2727 95.3665C51.3059 100.333 48.5156 107.07 48.5156 114.094C48.5156 121.118 51.3059 127.854 56.2727 132.821C61.2395 137.788 67.9759 140.578 75 140.578Z" fill="url(#paint3_radial_84_3845)"/>
<path d="M66.2344 29.25C64.7212 26.6322 63.8666 23.686 63.7441 20.6648C63.6216 17.6436 64.2349 14.6379 65.5312 11.9062C66.1875 10.4531 64.7813 8.95309 63.3281 9.51559C62.1563 9.98434 61.0313 10.5468 59.9531 11.2968C56.1024 13.8625 53.3327 17.7578 52.1738 22.2375C51.015 26.7172 51.5483 31.4669 53.6719 35.5781C54.8405 37.8245 56.4527 39.8106 58.411 41.416C60.3692 43.0215 62.6328 44.213 65.0648 44.9185C67.4967 45.624 70.0466 45.8288 72.56 45.5205C75.0734 45.2122 77.4981 44.3973 79.6875 43.125C81.8438 41.8593 83.6719 40.2656 85.0781 38.4375C77.7187 39.4687 70.1719 36.0468 66.2344 29.25Z" fill="url(#paint4_linear_84_3845)"/>
<path d="M66.2344 29.25C64.7212 26.6322 63.8666 23.686 63.7441 20.6648C63.6216 17.6436 64.2349 14.6379 65.5312 11.9062C66.1875 10.4531 64.7813 8.95309 63.3281 9.51559C62.1563 9.98434 61.0313 10.5468 59.9531 11.2968C56.1024 13.8625 53.3327 17.7578 52.1738 22.2375C51.015 26.7172 51.5483 31.4669 53.6719 35.5781C54.8405 37.8245 56.4527 39.8106 58.411 41.416C60.3692 43.0215 62.6328 44.213 65.0648 44.9185C67.4967 45.624 70.0466 45.8288 72.56 45.5205C75.0734 45.2122 77.4981 44.3973 79.6875 43.125C81.8438 41.8593 83.6719 40.2656 85.0781 38.4375C77.7187 39.4687 70.1719 36.0468 66.2344 29.25Z" fill="url(#paint5_linear_84_3845)"/>
<path d="M66.2344 29.25C64.7212 26.6322 63.8666 23.686 63.7441 20.6648C63.6216 17.6436 64.2349 14.6379 65.5312 11.9062C66.1875 10.4531 64.7813 8.95309 63.3281 9.51559C62.1563 9.98434 61.0313 10.5468 59.9531 11.2968C56.1024 13.8625 53.3327 17.7578 52.1738 22.2375C51.015 26.7172 51.5483 31.4669 53.6719 35.5781C54.8405 37.8245 56.4527 39.8106 58.411 41.416C60.3692 43.0215 62.6328 44.213 65.0648 44.9185C67.4967 45.624 70.0466 45.8288 72.56 45.5205C75.0734 45.2122 77.4981 44.3973 79.6875 43.125C81.8438 41.8593 83.6719 40.2656 85.0781 38.4375C77.7187 39.4687 70.1719 36.0468 66.2344 29.25Z" fill="url(#paint6_radial_84_3845)" fill-opacity="0.75"/>
<g filter="url(#filter0_f_84_3845)">
<path d="M63.7968 11.7468C61.6452 14.3109 58.3312 21.4312 62.2546 29.4" stroke="url(#paint7_linear_84_3845)" stroke-width="1.17188" stroke-linecap="round"/>
</g>
<path d="M88.4531 29.25C91.6406 23.7187 91.6875 17.25 89.1562 11.9062C88.5 10.4531 89.9062 8.95309 91.3594 9.51559C92.5312 9.98434 93.6562 10.5468 94.7344 11.2968C98.5851 13.8625 101.355 17.7578 102.514 22.2375C103.673 26.7172 103.139 31.4669 101.016 35.5781C99.847 37.8245 98.2348 39.8106 96.2765 41.416C94.3183 43.0215 92.0547 44.213 89.6227 44.9185C87.1907 45.624 84.6409 45.8288 82.1275 45.5205C79.6141 45.2122 77.1894 44.3973 75 43.125C72.8437 41.8593 71.0156 40.2656 69.6094 38.4375C76.9688 39.4687 84.5156 36.0468 88.4531 29.25Z" fill="url(#paint8_linear_84_3845)"/>
<path d="M88.4531 29.25C91.6406 23.7187 91.6875 17.25 89.1562 11.9062C88.5 10.4531 89.9062 8.95309 91.3594 9.51559C92.5312 9.98434 93.6562 10.5468 94.7344 11.2968C98.5851 13.8625 101.355 17.7578 102.514 22.2375C103.673 26.7172 103.139 31.4669 101.016 35.5781C99.847 37.8245 98.2348 39.8106 96.2765 41.416C94.3183 43.0215 92.0547 44.213 89.6227 44.9185C87.1907 45.624 84.6409 45.8288 82.1275 45.5205C79.6141 45.2122 77.1894 44.3973 75 43.125C72.8437 41.8593 71.0156 40.2656 69.6094 38.4375C76.9688 39.4687 84.5156 36.0468 88.4531 29.25Z" fill="url(#paint9_linear_84_3845)"/>
<g filter="url(#filter1_f_84_3845)">
<path d="M92.6531 12.1125C95.6531 13.5047 101.222 22.9547 98.8031 30.2766" stroke="url(#paint10_linear_84_3845)" stroke-width="1.17188" stroke-linecap="round"/>
</g>
<path d="M92.4563 28.125H53.0297C40.9828 28.125 32.8125 39.5531 32.8125 50.1094V105.328H117.188V50.1094C117.188 37.9687 106.111 28.125 92.4563 28.125Z" fill="url(#paint11_linear_84_3845)"/>
<path d="M92.4563 28.125H53.0297C40.9828 28.125 32.8125 39.5531 32.8125 50.1094V105.328H117.188V50.1094C117.188 37.9687 106.111 28.125 92.4563 28.125Z" fill="url(#paint12_linear_84_3845)"/>
<path d="M92.4563 28.125H53.0297C40.9828 28.125 32.8125 39.5531 32.8125 50.1094V105.328H117.188V50.1094C117.188 37.9687 106.111 28.125 92.4563 28.125Z" fill="url(#paint13_linear_84_3845)"/>
<path d="M92.4563 28.125H53.0297C40.9828 28.125 32.8125 39.5531 32.8125 50.1094V105.328H117.188V50.1094C117.188 37.9687 106.111 28.125 92.4563 28.125Z" fill="url(#paint14_radial_84_3845)"/>
<path d="M27.7031 25.7812C33.1875 25.7812 37.875 29.4375 39.3281 34.4531C37.7344 36.0469 36.4219 37.875 35.3438 39.8438H28.5469C25.327 39.8438 22.239 38.5647 19.9622 36.2878C17.6853 34.011 16.4062 30.923 16.4062 27.7031V26.7656C16.4062 26.2031 16.8281 25.7812 17.3906 25.7812H27.7031Z" fill="url(#paint15_radial_84_3845)"/>
<path d="M27.7031 25.7812C33.1875 25.7812 37.875 29.4375 39.3281 34.4531C37.7344 36.0469 36.4219 37.875 35.3438 39.8438H28.5469C25.327 39.8438 22.239 38.5647 19.9622 36.2878C17.6853 34.011 16.4062 30.923 16.4062 27.7031V26.7656C16.4062 26.2031 16.8281 25.7812 17.3906 25.7812H27.7031Z" fill="url(#paint16_radial_84_3845)"/>
<path d="M103.125 46.875H121.453C132.047 46.875 140.625 38.2969 140.625 27.7031V21.6562C140.625 20.0625 139.313 18.75 137.672 18.75H122.297C111.703 18.75 103.125 27.3281 103.125 37.9219V46.875Z" fill="url(#paint17_linear_84_3845)"/>
<path d="M103.125 46.875H121.453C132.047 46.875 140.625 38.2969 140.625 27.7031V21.6562C140.625 20.0625 139.313 18.75 137.672 18.75H122.297C111.703 18.75 103.125 27.3281 103.125 37.9219V46.875Z" fill="url(#paint18_linear_84_3845)"/>
<path d="M103.125 46.875H121.453C132.047 46.875 140.625 38.2969 140.625 27.7031V21.6562C140.625 20.0625 139.313 18.75 137.672 18.75H122.297C111.703 18.75 103.125 27.3281 103.125 37.9219V46.875Z" fill="url(#paint19_radial_84_3845)"/>
<path d="M104.531 46.875H116.953C115.406 36.2812 106.266 28.125 95.2031 28.125H75L86.1562 39.2813C88.5701 41.6919 91.4354 43.6033 94.5882 44.9063C97.7411 46.2093 101.12 46.8782 104.531 46.875Z" fill="url(#paint20_radial_84_3845)"/>
<path d="M75 86.5312V65.3906C75 50.0344 57.3281 30.2578 44.4375 30.2578C39.2016 32.7891 32.8125 39.8531 32.8125 49.2656V93.75L75 86.5312Z" fill="url(#paint21_linear_84_3845)"/>
<path d="M75 86.5312V65.3906C75 50.0344 57.3281 30.2578 44.4375 30.2578C39.2016 32.7891 32.8125 39.8531 32.8125 49.2656V93.75L75 86.5312Z" fill="url(#paint22_linear_84_3845)"/>
<path d="M121.875 105.098C121.687 90.9889 110.016 79.6452 95.9999 79.6921H54.4218C40.2187 79.4108 28.3124 90.8952 28.1249 105.098C28.0765 108.515 28.7075 111.907 29.9813 115.078C31.2551 118.249 33.1463 121.135 35.545 123.569C37.9437 126.002 40.8022 127.935 43.9542 129.254C47.1063 130.574 50.4891 131.254 53.9062 131.255H96.0937C110.437 131.255 122.062 119.536 121.875 105.098Z" fill="url(#paint23_linear_84_3845)"/>
<path d="M121.875 105.098C121.687 90.9889 110.016 79.6452 95.9999 79.6921H54.4218C40.2187 79.4108 28.3124 90.8952 28.1249 105.098C28.0765 108.515 28.7075 111.907 29.9813 115.078C31.2551 118.249 33.1463 121.135 35.545 123.569C37.9437 126.002 40.8022 127.935 43.9542 129.254C47.1063 130.574 50.4891 131.254 53.9062 131.255H96.0937C110.437 131.255 122.062 119.536 121.875 105.098Z" fill="url(#paint24_radial_84_3845)"/>
<path d="M121.875 105.098C121.687 90.9889 110.016 79.6452 95.9999 79.6921H54.4218C40.2187 79.4108 28.3124 90.8952 28.1249 105.098C28.0765 108.515 28.7075 111.907 29.9813 115.078C31.2551 118.249 33.1463 121.135 35.545 123.569C37.9437 126.002 40.8022 127.935 43.9542 129.254C47.1063 130.574 50.4891 131.254 53.9062 131.255H96.0937C110.437 131.255 122.062 119.536 121.875 105.098Z" fill="url(#paint25_linear_84_3845)"/>
<path d="M121.875 105.098C121.687 90.9889 110.016 79.6452 95.9999 79.6921H54.4218C40.2187 79.4108 28.3124 90.8952 28.1249 105.098C28.0765 108.515 28.7075 111.907 29.9813 115.078C31.2551 118.249 33.1463 121.135 35.545 123.569C37.9437 126.002 40.8022 127.935 43.9542 129.254C47.1063 130.574 50.4891 131.254 53.9062 131.255H96.0937C110.437 131.255 122.062 119.536 121.875 105.098Z" fill="url(#paint26_linear_84_3845)"/>
<path d="M122.297 25.7812C116.812 25.7812 112.125 29.4375 110.672 34.4531C112.266 36 113.625 37.8281 114.656 39.8438H121.453C124.673 39.8438 127.761 38.5647 130.038 36.2878C132.315 34.011 133.594 30.923 133.594 27.7031V26.7656C133.594 26.2031 133.172 25.7812 132.609 25.7812H122.297Z" fill="#F4B9A8"/>
<g filter="url(#filter2_i_84_3845)">
<path d="M122.297 25.7812C116.812 25.7812 112.125 29.4375 110.672 34.4531C112.266 36 113.625 37.8281 114.656 39.8438H121.453C124.673 39.8438 127.761 38.5647 130.038 36.2878C132.315 34.011 133.594 30.923 133.594 27.7031V26.7656C133.594 26.2031 133.172 25.7812 132.609 25.7812H122.297Z" fill="url(#paint27_radial_84_3845)"/>
</g>
<path d="M60.9375 103.125C62.1807 103.125 63.373 102.631 64.2521 101.752C65.1311 100.873 65.625 99.6807 65.625 98.4375C65.625 97.1943 65.1311 96.002 64.2521 95.1229C63.373 94.2439 62.1807 93.75 60.9375 93.75C59.6943 93.75 58.502 94.2439 57.6229 95.1229C56.7439 96.002 56.25 97.1943 56.25 98.4375C56.25 99.6807 56.7439 100.873 57.6229 101.752C58.502 102.631 59.6943 103.125 60.9375 103.125Z" fill="url(#paint28_radial_84_3845)"/>
<path d="M89.0625 103.125C90.3057 103.125 91.498 102.631 92.3771 101.752C93.2561 100.873 93.75 99.6807 93.75 98.4375C93.75 97.1943 93.2561 96.002 92.3771 95.1229C91.498 94.2439 90.3057 93.75 89.0625 93.75C87.8193 93.75 86.627 94.2439 85.7479 95.1229C84.8689 96.002 84.375 97.1943 84.375 98.4375C84.375 99.6807 84.8689 100.873 85.7479 101.752C86.627 102.631 87.8193 103.125 89.0625 103.125Z" fill="url(#paint29_radial_84_3845)"/>
<g filter="url(#filter3_f_84_3845)">
<path d="M59.7656 65.5453C59.7656 63.4018 58.029 61.6641 55.8867 61.6641C53.7445 61.6641 52.0078 63.4018 52.0078 65.5453V70.3875C52.0078 72.5311 53.7445 74.2688 55.8867 74.2688C58.029 74.2688 59.7656 72.5311 59.7656 70.3875V65.5453Z" fill="#4E4854"/>
</g>
<path d="M59.7656 64.4531C59.7656 62.5115 58.1916 60.9375 56.25 60.9375C54.3084 60.9375 52.7344 62.5115 52.7344 64.4531V71.4844C52.7344 73.426 54.3084 75 56.25 75C58.1916 75 59.7656 73.426 59.7656 71.4844V64.4531Z" fill="url(#paint30_linear_84_3845)"/>
<path d="M59.7656 64.4531C59.7656 62.5115 58.1916 60.9375 56.25 60.9375C54.3084 60.9375 52.7344 62.5115 52.7344 64.4531V71.4844C52.7344 73.426 54.3084 75 56.25 75C58.1916 75 59.7656 73.426 59.7656 71.4844V64.4531Z" fill="url(#paint31_linear_84_3845)"/>
<path d="M59.7656 64.4531C59.7656 62.5115 58.1916 60.9375 56.25 60.9375C54.3084 60.9375 52.7344 62.5115 52.7344 64.4531V71.4844C52.7344 73.426 54.3084 75 56.25 75C58.1916 75 59.7656 73.426 59.7656 71.4844V64.4531Z" fill="url(#paint32_linear_84_3845)"/>
<g filter="url(#filter4_f_84_3845)">
<path d="M92.4281 61.6641H92.4234C90.6837 61.6641 89.2734 63.0744 89.2734 64.8141V71.1188C89.2734 72.8584 90.6837 74.2688 92.4234 74.2688H92.4281C94.1678 74.2688 95.5781 72.8584 95.5781 71.1188V64.8141C95.5781 63.0744 94.1678 61.6641 92.4281 61.6641Z" fill="#BBB1BB"/>
</g>
<path d="M97.2656 64.4531C97.2656 62.5115 95.6916 60.9375 93.75 60.9375C91.8084 60.9375 90.2344 62.5115 90.2344 64.4531V71.4844C90.2344 73.426 91.8084 75 93.75 75C95.6916 75 97.2656 73.426 97.2656 71.4844V64.4531Z" fill="url(#paint33_linear_84_3845)"/>
<path d="M97.2656 64.4531C97.2656 62.5115 95.6916 60.9375 93.75 60.9375C91.8084 60.9375 90.2344 62.5115 90.2344 64.4531V71.4844C90.2344 73.426 91.8084 75 93.75 75C95.6916 75 97.2656 73.426 97.2656 71.4844V64.4531Z" fill="url(#paint34_linear_84_3845)"/>
<path d="M97.2656 64.4531C97.2656 62.5115 95.6916 60.9375 93.75 60.9375C91.8084 60.9375 90.2344 62.5115 90.2344 64.4531V71.4844C90.2344 73.426 91.8084 75 93.75 75C95.6916 75 97.2656 73.426 97.2656 71.4844V64.4531Z" fill="url(#paint35_linear_84_3845)"/>
<path d="M97.2656 64.4531C97.2656 62.5115 95.6916 60.9375 93.75 60.9375C91.8084 60.9375 90.2344 62.5115 90.2344 64.4531V71.4844C90.2344 73.426 91.8084 75 93.75 75C95.6916 75 97.2656 73.426 97.2656 71.4844V64.4531Z" fill="url(#paint36_radial_84_3845)"/>
<g filter="url(#filter5_f_84_3845)">
<path d="M93.7812 107.816C100.115 114.842 109.907 116.339 115.653 111.159C121.398 105.98 120.921 96.0854 114.587 89.0593C108.254 82.0332 98.4613 80.5362 92.7158 85.7156C86.9703 90.895 87.4473 100.79 93.7812 107.816Z" fill="url(#paint37_radial_84_3845)"/>
</g>
<defs>
<filter id="filter0_f_84_3845" x="56.3298" y="7.64526" width="11.5686" height="25.8564" filterUnits="userSpaceOnUse" color-interpolation-filters="sRGB">
<feFlood flood-opacity="0" result="BackgroundImageFix"/>
<feBlend mode="normal" in="SourceGraphic" in2="BackgroundImageFix" result="shape"/>
<feGaussianBlur stdDeviation="1.75781" result="effect1_foregroundBlur_84_3845"/>
</filter>
<filter id="filter1_f_84_3845" x="88.5513" y="8.01074" width="14.9463" height="26.3677" filterUnits="userSpaceOnUse" color-interpolation-filters="sRGB">
<feFlood flood-opacity="0" result="BackgroundImageFix"/>
<feBlend mode="normal" in="SourceGraphic" in2="BackgroundImageFix" result="shape"/>
<feGaussianBlur stdDeviation="1.75781" result="effect1_foregroundBlur_84_3845"/>
</filter>
<filter id="filter2_i_84_3845" x="110.672" y="25.7812" width="22.9219" height="15.4688" filterUnits="userSpaceOnUse" color-interpolation-filters="sRGB">
<feFlood flood-opacity="0" result="BackgroundImageFix"/>
<feBlend mode="normal" in="SourceGraphic" in2="BackgroundImageFix" result="shape"/>
<feColorMatrix in="SourceAlpha" type="matrix" values="0 0 0 0 0 0 0 0 0 0 0 0 0 0 0 0 0 0 127 0" result="hardAlpha"/>
<feOffset dy="1.40625"/>
<feGaussianBlur stdDeviation="1.17188"/>
<feComposite in2="hardAlpha" operator="arithmetic" k2="-1" k3="1"/>
<feColorMatrix type="matrix" values="0 0 0 0 0.890196 0 0 0 0 0.486275 0 0 0 0 0.490196 0 0 0 1 0"/>
<feBlend mode="normal" in2="shape" result="effect1_innerShadow_84_3845"/>
</filter>
<filter id="filter3_f_84_3845" x="49.6641" y="59.3203" width="12.4453" height="17.2922" filterUnits="userSpaceOnUse" color-interpolation-filters="sRGB">
<feFlood flood-opacity="0" result="BackgroundImageFix"/>
<feBlend mode="normal" in="SourceGraphic" in2="BackgroundImageFix" result="shape"/>
<feGaussianBlur stdDeviation="1.17188" result="effect1_foregroundBlur_84_3845"/>
</filter>
<filter id="filter4_f_84_3845" x="86.9297" y="59.3203" width="10.9922" height="17.2922" filterUnits="userSpaceOnUse" color-interpolation-filters="sRGB">
<feFlood flood-opacity="0" result="BackgroundImageFix"/>
<feBlend mode="normal" in="SourceGraphic" in2="BackgroundImageFix" result="shape"/>
<feGaussianBlur stdDeviation="1.17188" result="effect1_foregroundBlur_84_3845"/>
</filter>
<filter id="filter5_f_84_3845" x="84.0127" y="77.9441" width="40.343" height="40.9868" filterUnits="userSpaceOnUse" color-interpolation-filters="sRGB">
<feFlood flood-opacity="0" result="BackgroundImageFix"/>
<feBlend mode="normal" in="SourceGraphic" in2="BackgroundImageFix" result="shape"/>
<feGaussianBlur stdDeviation="2.34375" result="effect1_foregroundBlur_84_3845"/>
</filter>
<linearGradient id="paint0_linear_84_3845" x1="22.4109" y1="38.8453" x2="33.2531" y2="26.3953" gradientUnits="userSpaceOnUse">
<stop stop-color="#626061"/>
<stop offset="1" stop-color="#727273"/>
</linearGradient>
<linearGradient id="paint1_linear_84_3845" x1="29.5922" y1="49.8328" x2="29.5922" y2="35.4797" gradientUnits="userSpaceOnUse">
<stop stop-color="#5F4478"/>
<stop offset="1" stop-color="#5C4C69" stop-opacity="0"/>
</linearGradient>
<radialGradient id="paint2_radial_84_3845" cx="0" cy="0" r="1" gradientUnits="userSpaceOnUse" gradientTransform="translate(40.4297 26.25) rotate(144.583) scale(8.08854 14.4872)">
<stop stop-color="#878688"/>
<stop offset="1" stop-color="#878688" stop-opacity="0"/>
</radialGradient>
<radialGradient id="paint3_radial_84_3845" cx="0" cy="0" r="1" gradientUnits="userSpaceOnUse" gradientTransform="translate(75 133.008) rotate(90) scale(4.98047 21.2321)">
<stop stop-color="#D04568"/>
<stop offset="1" stop-color="#DA6585"/>
</radialGradient>
<linearGradient id="paint4_linear_84_3845" x1="83.325" y1="9.39371" x2="83.325" y2="37.9687" gradientUnits="userSpaceOnUse">
<stop stop-color="#F6D4AD"/>
<stop offset="1" stop-color="#D9AE7F"/>
</linearGradient>
<linearGradient id="paint5_linear_84_3845" x1="61.3781" y1="39.5812" x2="66.6516" y2="27.5297" gradientUnits="userSpaceOnUse">
<stop stop-color="#CB9964"/>
<stop offset="1" stop-color="#CB9964" stop-opacity="0"/>
</linearGradient>
<radialGradient id="paint6_radial_84_3845" cx="0" cy="0" r="1" gradientUnits="userSpaceOnUse" gradientTransform="translate(62.2547 21.8531) rotate(-158.276) scale(10.0917 17.9658)">
<stop offset="0.687" stop-color="#CB9964" stop-opacity="0"/>
<stop offset="1" stop-color="#CB9964"/>
</radialGradient>
<linearGradient id="paint7_linear_84_3845" x1="62.7702" y1="14.4562" x2="63.7921" y2="40.0921" gradientUnits="userSpaceOnUse">
<stop stop-color="#FFF5E8"/>
<stop offset="1" stop-color="#FFE3BF" stop-opacity="0"/>
</linearGradient>
<linearGradient id="paint8_linear_84_3845" x1="101.367" y1="-0.70316" x2="101.367" y2="36.2109" gradientUnits="userSpaceOnUse">
<stop stop-color="#F6D4AD"/>
<stop offset="1" stop-color="#D9AE7F"/>
</linearGradient>
<linearGradient id="paint9_linear_84_3845" x1="104.883" y1="34.7437" x2="95.9484" y2="27.5297" gradientUnits="userSpaceOnUse">
<stop stop-color="#CB9964"/>
<stop offset="1" stop-color="#CB9964" stop-opacity="0"/>
</linearGradient>
<linearGradient id="paint10_linear_84_3845" x1="94.8562" y1="14.4563" x2="93.8296" y2="40.0922" gradientUnits="userSpaceOnUse">
<stop stop-color="#FFF5E8"/>
<stop offset="1" stop-color="#FFE3BF" stop-opacity="0"/>
</linearGradient>
<linearGradient id="paint11_linear_84_3845" x1="54.4922" y1="88.0641" x2="133.008" y2="88.0641" gradientUnits="userSpaceOnUse">
<stop stop-color="#D4D1D7"/>
<stop offset="1" stop-color="#FBF6FF"/>
</linearGradient>
<linearGradient id="paint12_linear_84_3845" x1="107.813" y1="88.0641" x2="120.703" y2="88.0641" gradientUnits="userSpaceOnUse">
<stop stop-color="#D4D1D7" stop-opacity="0"/>
<stop offset="1" stop-color="#D4D1D7"/>
</linearGradient>
<linearGradient id="paint13_linear_84_3845" x1="69.5813" y1="41.6297" x2="58.1531" y2="25.6641" gradientUnits="userSpaceOnUse">
<stop stop-color="#C3C0C7" stop-opacity="0"/>
<stop offset="1" stop-color="#BCB7C0"/>
</linearGradient>
<radialGradient id="paint14_radial_84_3845" cx="0" cy="0" r="1" gradientUnits="userSpaceOnUse" gradientTransform="translate(50.6859 32.9859) rotate(45.924) scale(25.6912 21.9937)">
<stop stop-color="#D4D1D7"/>
<stop offset="1" stop-color="#D4D1D7" stop-opacity="0"/>
</radialGradient>
<radialGradient id="paint15_radial_84_3845" cx="0" cy="0" r="1" gradientUnits="userSpaceOnUse" gradientTransform="translate(23.9531 37.3125) rotate(-150.627) scale(15.3805 10.4058)">
<stop stop-color="#FFB6AE"/>
<stop offset="1" stop-color="#E58082"/>
</radialGradient>
<radialGradient id="paint16_radial_84_3845" cx="0" cy="0" r="1" gradientUnits="userSpaceOnUse" gradientTransform="translate(29.0016 24.4875) rotate(97.7793) scale(8.39788 13.577)">
<stop stop-color="#DB7376"/>
<stop offset="1" stop-color="#DB7376" stop-opacity="0"/>
</radialGradient>
<linearGradient id="paint17_linear_84_3845" x1="116.161" y1="38.8453" x2="127.003" y2="26.3953" gradientUnits="userSpaceOnUse">
<stop stop-color="#626061"/>
<stop offset="1" stop-color="#727273"/>
</linearGradient>
<linearGradient id="paint18_linear_84_3845" x1="123.342" y1="48.6609" x2="123.342" y2="35.1844" gradientUnits="userSpaceOnUse">
<stop stop-color="#5C4C69"/>
<stop offset="1" stop-color="#5C4C69" stop-opacity="0"/>
</linearGradient>
<radialGradient id="paint19_radial_84_3845" cx="0" cy="0" r="1" gradientUnits="userSpaceOnUse" gradientTransform="translate(135.13 24.7891) rotate(141.017) scale(20.2579 6.87197)">
<stop stop-color="#878688"/>
<stop offset="1" stop-color="#878688" stop-opacity="0"/>
</radialGradient>
<radialGradient id="paint20_radial_84_3845" cx="0" cy="0" r="1" gradientUnits="userSpaceOnUse" gradientTransform="translate(97.8516 46.875) rotate(-82.9251) scale(16.6505 19.2481)">
<stop stop-color="#8C8B8D"/>
<stop offset="1" stop-color="#747474"/>
</radialGradient>
<linearGradient id="paint21_linear_84_3845" x1="76.7578" y1="54.8672" x2="44.8266" y2="54.8672" gradientUnits="userSpaceOnUse">
<stop stop-color="#706973"/>
<stop offset="1" stop-color="#6B696D"/>
</linearGradient>
<linearGradient id="paint22_linear_84_3845" x1="41.0156" y1="79.5516" x2="25.4906" y2="79.5516" gradientUnits="userSpaceOnUse">
<stop stop-color="#828183" stop-opacity="0"/>
<stop offset="0.896" stop-color="#828183"/>
<stop offset="1" stop-color="#828183"/>
</linearGradient>
<linearGradient id="paint23_linear_84_3845" x1="30.764" y1="98.9061" x2="95.2171" y2="98.9061" gradientUnits="userSpaceOnUse">
<stop stop-color="#E7A8A9"/>
<stop offset="1" stop-color="#F3B9AD"/>
</linearGradient>
<radialGradient id="paint24_radial_84_3845" cx="0" cy="0" r="1" gradientUnits="userSpaceOnUse" gradientTransform="translate(80.2733 93.6327) rotate(93.2809) scale(46.0716 97.5853)">
<stop offset="0.432" stop-color="#D17DAE" stop-opacity="0"/>
<stop offset="1" stop-color="#CE79AD"/>
</radialGradient>
<linearGradient id="paint25_linear_84_3845" x1="77.639" y1="112.383" x2="77.639" y2="137.869" gradientUnits="userSpaceOnUse">
<stop offset="0.432" stop-color="#D17DAE" stop-opacity="0"/>
<stop offset="1" stop-color="#AD618F"/>
</linearGradient>
<linearGradient id="paint26_linear_84_3845" x1="77.639" y1="112.383" x2="77.639" y2="65.7983" gradientUnits="userSpaceOnUse">
<stop offset="0.604" stop-color="#DE9E8F" stop-opacity="0"/>
<stop offset="1" stop-color="#DE9E8F"/>
</linearGradient>
<radialGradient id="paint27_radial_84_3845" cx="0" cy="0" r="1" gradientUnits="userSpaceOnUse" gradientTransform="translate(112.795 37.6734) rotate(-31.4045) scale(22.8262 8.616)">
<stop stop-color="#FFB6AE"/>
<stop offset="0.931" stop-color="#E58082"/>
</radialGradient>
<radialGradient id="paint28_radial_84_3845" cx="0" cy="0" r="1" gradientUnits="userSpaceOnUse" gradientTransform="translate(57.8625 98.4375) scale(5.41992)">
<stop stop-color="#FFA0A8"/>
<stop offset="1" stop-color="#FE7883"/>
</radialGradient>
<radialGradient id="paint29_radial_84_3845" cx="0" cy="0" r="1" gradientUnits="userSpaceOnUse" gradientTransform="translate(86.6437 98.4375) scale(5.20022)">
<stop stop-color="#FFA0A8"/>
<stop offset="1" stop-color="#FE7883"/>
</radialGradient>
<linearGradient id="paint30_linear_84_3845" x1="59.7656" y1="67.9688" x2="55.6969" y2="67.9688" gradientUnits="userSpaceOnUse">
<stop offset="0.307" stop-color="#615154"/>
<stop offset="1" stop-color="#392833"/>
</linearGradient>
<linearGradient id="paint31_linear_84_3845" x1="60.8625" y1="75.2062" x2="60.8625" y2="68.5969" gradientUnits="userSpaceOnUse">
<stop stop-color="#552D52"/>
<stop offset="1" stop-color="#552D52" stop-opacity="0"/>
</linearGradient>
<linearGradient id="paint32_linear_84_3845" x1="50.4094" y1="71.2828" x2="54.1453" y2="71.2828" gradientUnits="userSpaceOnUse">
<stop stop-color="#594C4F"/>
<stop offset="1" stop-color="#594C4F" stop-opacity="0"/>
</linearGradient>
<linearGradient id="paint33_linear_84_3845" x1="97.2656" y1="67.9688" x2="93.1969" y2="67.9688" gradientUnits="userSpaceOnUse">
<stop offset="0.225" stop-color="#594C4F"/>
<stop offset="1" stop-color="#392833"/>
</linearGradient>
<linearGradient id="paint34_linear_84_3845" x1="98.3625" y1="75.2062" x2="98.3625" y2="68.5969" gradientUnits="userSpaceOnUse">
<stop stop-color="#552D52"/>
<stop offset="1" stop-color="#552D52" stop-opacity="0"/>
</linearGradient>
<linearGradient id="paint35_linear_84_3845" x1="87.9094" y1="71.2828" x2="92.7516" y2="71.2828" gradientUnits="userSpaceOnUse">
<stop stop-color="#594C4F"/>
<stop offset="1" stop-color="#594C4F" stop-opacity="0"/>
</linearGradient>
<radialGradient id="paint36_radial_84_3845" cx="0" cy="0" r="1" gradientUnits="userSpaceOnUse" gradientTransform="translate(95.1188 68.8125) rotate(-109.485) scale(8.13134 7.90447)">
<stop offset="0.814" stop-color="#594C4F" stop-opacity="0"/>
<stop offset="1" stop-color="#594C4F"/>
</radialGradient>
<radialGradient id="paint37_radial_84_3845" cx="0" cy="0" r="1" gradientUnits="userSpaceOnUse" gradientTransform="translate(110.154 93.335) rotate(138.523) scale(21.8573 21.0204)">
<stop stop-color="#FFD9CF"/>
<stop offset="1" stop-color="#FFD9CF" stop-opacity="0"/>
</radialGradient>
</defs>
</svg>
