<svg width="50" height="49" viewBox="0 0 50 49" fill="none" xmlns="http://www.w3.org/2000/svg">
<g clip-path="url(#clip0_84_3936)">
<mask id="mask0_84_3936" style="mask-type:luminance" maskUnits="userSpaceOnUse" x="-2" y="-3" width="54" height="55">
<path d="M42.3541 4.08325H7.64575C6.83353 4.08325 6.05457 4.40591 5.48024 4.98024C4.90591 5.55457 4.58325 6.33353 4.58325 7.14575V41.8541C4.58325 42.6663 4.90591 43.4453 5.48024 44.0196C6.05457 44.5939 6.83353 44.9166 7.64575 44.9166H42.3541C43.1663 44.9166 43.9453 44.5939 44.5196 44.0196C45.0939 43.4453 45.4166 42.6663 45.4166 41.8541V7.14575C45.4166 6.33353 45.0939 5.55457 44.5196 4.98024C43.9453 4.40591 43.1663 4.08325 42.3541 4.08325Z" fill="white" stroke="white" stroke-width="12.5" stroke-linejoin="round"/>
<path d="M12.75 19.4509C16.1439 15.3676 20.2273 13.3259 25 13.3259C29.7721 13.3259 33.8554 15.3676 37.25 19.4509" stroke="black" stroke-width="5" stroke-linecap="round"/>
<path d="M25 31.6458C25.8122 31.6458 26.5912 31.3231 27.1655 30.7488C27.7398 30.1744 28.0625 29.3955 28.0625 28.5833C28.0625 27.771 27.7398 26.9921 27.1655 26.4177C26.5912 25.8434 25.8122 25.5208 25 25.5208C24.1878 25.5208 23.4088 25.8434 22.8345 26.4177C22.2602 26.9921 21.9375 27.771 21.9375 28.5833C21.9375 29.3955 22.2602 30.1744 22.8345 30.7488C23.4088 31.3231 24.1878 31.6458 25 31.6458Z" fill="black"/>
<path d="M19.8958 21.4375L25.0081 28.5833" stroke="black" stroke-width="5" stroke-linecap="round"/>
</mask>
<g mask="url(#mask0_84_3936)">
<path d="M0.5 0H49.5V49H0.5V0Z" fill="#CA66C3"/>
<path d="M0.5 0H49.5V49H0.5V0Z" fill="#CA66C3"/>
</g>
</g>
<defs>
<clipPath id="clip0_84_3936">
<rect width="49" height="49" fill="white" transform="translate(0.5)"/>
</clipPath>
</defs>
</svg>
